<svg baseProfile="full" height="100%" version="1.1" viewBox="430,40,140,35" width="100%" xmlns="http://www.w3.org/2000/svg" xmlns:ev="http://www.w3.org/2001/xml-events" xmlns:xlink="http://www.w3.org/1999/xlink"><defs><clipPath id="clip-path"><rect height="120" width="1000" x="0" y="0" /></clipPath></defs><g clip-path="url(#clip-path)"><rect fill="white" height="120" width="1000" x="0" y="0" /><path d="M0,0 M472.9150390625,45.39192581176758 L472.5292663574219,45.17991638183594 L471.81793212890625,45.0 L470.7559814453125,45.0344352722168 L469.41119384765625,45.49293518066406 L467.7989196777344,46.43111038208008 L466.0010070800781,47.8572998046875 L464.1575622558594,49.710182189941406 L462.45916748046875,51.90916442871094 L461.0760803222656,54.29325866699219 L460.1654052734375,56.68164825439453 L459.80145263671875,58.89105224609375 L460.099853515625,60.74508285522461 L461.06298828125,62.108192443847656 L462.57159423828125,62.92774963378906 L464.0474548339844,63.284610748291016 L465.10418701171875,63.35350036621094 M478.3774108886719,52.7054443359375 L478.1072082519531,52.51182174682617 L477.6037902832031,52.323577880859375 L476.8432922363281,52.299007415771484 L475.8710021972656,52.62145233154297 L474.7252197265625,53.34733200073242 L473.5101013183594,54.46988296508789 L472.37420654296875,55.902217864990234 L471.49591064453125,57.52247619628906 L471.0050048828125,59.14347457885742 L470.97003173828125,60.548519134521484 L471.40130615234375,61.53886795043945 L472.23883056640625,61.964599609375 L473.3785095214844,61.75878143310547 L474.68603515625,60.962303161621094 L475.99810791015625,59.6883430480957 L477.1728820800781,58.14192581176758 L478.09649658203125,56.57532501220703 L478.7270202636719,55.212486267089844 L479.06640625,54.215423583984375 L479.1637268066406,53.6789436340332 L479.08526611328125,53.6448974609375 L478.896484375,54.14134979248047 L478.63525390625,55.16269302368164 L478.431396484375,56.648399353027344 L478.3817138671875,58.399269104003906 L478.5621643066406,60.150753021240234 L478.8576354980469,61.499610900878906 L479.13372802734375,62.28373336791992 M491.90911865234375,53.804325103759766 L491.5574035644531,53.5101432800293 L490.8848876953125,53.13991165161133 L489.8783874511719,52.8504753112793 L488.6564025878906,52.85055923461914 L487.343505859375,53.1793327331543 L486.140380859375,53.810707092285156 L485.266357421875,54.659645080566406 L484.8975830078125,55.664344787597656 L485.1206970214844,56.7445182800293 L485.8905029296875,57.84572982788086 L487.0429382324219,58.90523910522461 L488.3388977050781,59.879249572753906 L489.53387451171875,60.73811340332031 L490.4090576171875,61.484901428222656 L490.8211364746094,62.10797882080078 L490.6808776855469,62.6077766418457 L489.9784240722656,62.97916793823242 L488.7608947753906,63.20981979370117 L487.182373046875,63.30487823486328 L485.4864501953125,63.272560119628906 L483.9515686035156,63.12206268310547 L482.8002624511719,62.8743896484375 L482.1308288574219,62.62928771972656 L481.854248046875,62.447818756103516 M501.3190002441406,53.815616607666016 L500.9961242675781,53.653648376464844 L500.388671875,53.5070686340332 L499.4736328125,53.512794494628906 L498.33526611328125,53.834327697753906 L497.0298767089844,54.50355911254883 L495.6959228515625,55.50505065917969 L494.5152282714844,56.78026580810547 L493.6692810058594,58.238494873046875 L493.310302734375,59.75168228149414 L493.5518798828125,61.183326721191406 L494.38177490234375,62.38523483276367 L495.8127136230469,63.191898345947266 L497.74615478515625,63.523555755615234 L499.9756774902344,63.3715705871582 L501.89031982421875,62.991172790527344 L503.15081787109375,62.624080657958984 M512.4641723632812,53.971519470214844 L512.1350708007812,53.71562957763672 L511.50555419921875,53.419368743896484 L510.5653076171875,53.249916076660156 L509.3900146484375,53.42197799682617 L508.0636901855469,54.02046203613281 L506.69866943359375,55.05601501464844 L505.4399719238281,56.452144622802734 L504.4637451171875,58.06950378417969 L503.9195861816406,59.68840408325195 L503.8800048828125,61.06698226928711 L504.3848876953125,62.00318145751953 L505.3756103515625,62.36334228515625 L506.73260498046875,62.106021881103516 L508.3033447265625,61.27920150756836 L509.8990173339844,59.98795700073242 L511.3361511230469,58.40774154663086 L512.499267578125,56.76230239868164 L513.3312377929688,55.269073486328125 L513.8284912109375,54.09033203125 L514.0492553710938,53.35552215576172 L514.049560546875,53.13237380981445 L513.8844604492188,53.47172164916992 L513.5957641601562,54.39033126831055 L513.2800903320312,55.877716064453125 L513.0325927734375,57.747432708740234 L512.95849609375,59.748836517333984 L513.0184936523438,61.365516662597656 L513.1349487304688,62.35204315185547 M524.5033569335938,57.245723724365234 L524.2581176757812,56.925567626953125 L523.7777709960938,56.45747756958008 L523.0269775390625,55.98664474487305 L522.0357666015625,55.72692108154297 L520.842041015625,55.80227279663086 L519.5322265625,56.27333450317383 L518.2435913085938,57.12459945678711 L517.1564331054688,58.28644943237305 L516.4263916015625,59.62606430053711 L516.1637573242188,60.95336151123047 L516.412353515625,62.08612060546875 L517.1409912109375,62.851654052734375 L518.2659912109375,63.11647415161133 L519.6740112304688,62.80251693725586 L521.2293701171875,61.891326904296875 L522.8065185546875,60.422515869140625 L524.2969360351562,58.486724853515625 L525.6224975585938,56.21455001831055 L526.7308349609375,53.76466369628906 L527.6103515625,51.3324089050293 L528.244140625,49.13150405883789 L528.6551513671875,47.33476638793945 L528.8799438476562,46.04954147338867 L528.9557495117188,45.33540344238281 L528.9136352539062,45.21843338012695 L528.7827758789062,45.716827392578125 L528.5360717773438,46.84892272949219 L528.192138671875,48.56761932373047 L527.7775268554688,50.739315032958984 L527.3585815429688,53.186805725097656 L527.0180053710938,55.700416564941406 L526.8636474609375,58.0700569152832 L526.9320678710938,60.11446762084961 L527.2171630859375,61.700462341308594 L527.5531005859375,62.70643997192383 L527.8167114257812,63.19642639160156 M531.7962646484375,60.640403747558594 L531.8818359375,60.56068801879883 L532.1672973632812,60.31914138793945 L532.7305297851562,59.83466720581055 L533.5822143554688,59.0787467956543 L534.6275024414062,58.088382720947266 L535.7173461914062,56.93834686279297 L536.70556640625,55.735740661621094 L537.46728515625,54.58845901489258 L537.8876342773438,53.58327102661133 L537.9118041992188,52.82072067260742 L537.4963989257812,52.38782501220703 L536.6511840820312,52.35411834716797 L535.4564819335938,52.77030563354492 L534.0884399414062,53.64299011230469 L532.7739868164062,54.897010803222656 L531.7844848632812,56.431453704833984 L531.329833984375,58.09429931640625 L531.5521240234375,59.71175003051758 L532.456787109375,61.12619400024414 L534.0540161132812,62.185848236083984 L536.3502197265625,62.770023345947266 L538.571533203125,62.971187591552734 " fill="none" stroke="#000000" stroke-linecap="round" stroke-width="1" /></g></svg>