<svg baseProfile="full" height="100%" version="1.1" viewBox="450,45,150,30" width="100%" xmlns="http://www.w3.org/2000/svg" xmlns:ev="http://www.w3.org/2001/xml-events" xmlns:xlink="http://www.w3.org/1999/xlink"><defs><clipPath id="clip-path"><rect height="120" width="1000" x="0" y="0" /></clipPath></defs><g clip-path="url(#clip-path)"><rect fill="white" height="120" width="1000" x="0" y="0" /><path d="M0,0 M483.40478515625,47.16979217529297 L483.29730224609375,46.88050842285156 L483.087158203125,46.445518493652344 L482.7414855957031,45.95728302001953 L482.2369079589844,45.57373809814453 L481.5339660644531,45.362823486328125 L480.6193542480469,45.383121490478516 L479.51287841796875,45.67686462402344 L478.26641845703125,46.29570770263672 L476.9265441894531,47.27676010131836 L475.5320739746094,48.64403533935547 L474.1259460449219,50.40349578857422 L472.7718811035156,52.53467559814453 L471.5620422363281,54.968326568603516 L470.6126708984375,57.57611083984375 L470.016845703125,60.17868423461914 L469.8346252441406,62.58442687988281 L470.0764465332031,64.63137817382812 L470.7162170410156,66.21342468261719 L471.6978759765625,67.27346801757812 L472.9547424316406,67.78837585449219 L474.42010498046875,67.7544937133789 L476.0378723144531,67.18132019042969 L477.75152587890625,66.09786987304688 L479.5073547363281,64.5650634765625 L481.2398986816406,62.66546630859375 L482.88287353515625,60.50224304199219 L484.39447021484375,58.19707489013672 L485.7621765136719,55.85844421386719 L486.9892883300781,53.576419830322266 L488.0870056152344,51.43379592895508 L489.05267333984375,49.505615234375 L489.8526306152344,47.86619567871094 L490.46221923828125,46.581844329833984 L490.8770446777344,45.67339324951172 L491.0939636230469,45.14290237426758 L491.1285705566406,45.00309371948242 L490.9771423339844,45.30059051513672 L490.612060546875,46.10546875 L490.031005859375,47.4681396484375 L489.27679443359375,49.34799575805664 L488.40093994140625,51.62501907348633 L487.50830078125,54.12700271606445 L486.681884765625,56.67048263549805 L485.9961853027344,59.09027099609375 L485.5160827636719,61.268550872802734 L485.28411865234375,63.10727310180664 L485.272216796875,64.54695129394531 L485.4798889160156,65.53303527832031 L485.85443115234375,66.05386352539062 L486.3429870605469,66.14842987060547 L486.7900085449219,66.01356506347656 L487.1011962890625,65.82709503173828 M498.361083984375,55.59623718261719 L498.4367980957031,55.220733642578125 L498.4944152832031,54.663787841796875 L498.4606628417969,54.019168853759766 L498.24871826171875,53.446720123291016 L497.852783203125,52.98082733154297 L497.2605895996094,52.67498779296875 L496.48779296875,52.6108283996582 L495.5422058105469,52.918121337890625 L494.4485778808594,53.69953536987305 L493.2642517089844,54.998775482177734 L492.1083679199219,56.756107330322266 L491.0958251953125,58.804447174072266 L490.349609375,60.89881896972656 L489.951171875,62.78040313720703 L489.9089050292969,64.25798797607422 L490.19757080078125,65.23562622070312 L490.77679443359375,65.69003295898438 L491.5966796875,65.61184692382812 L492.6130065917969,64.97420501708984 L493.79644775390625,63.77311325073242 L495.0733337402344,62.08616256713867 L496.3782043457031,60.098777770996094 L497.64251708984375,58.089439392089844 L498.7785949707031,56.32345199584961 L499.70623779296875,54.95640563964844 L500.3788757324219,54.04541778564453 L500.75457763671875,53.61042404174805 L500.8485107421875,53.69740676879883 L500.6902160644531,54.38247299194336 L500.3134460449219,55.69231414794922 L499.7845153808594,57.49642562866211 L499.2064208984375,59.5589599609375 L498.6937561035156,61.60874557495117 L498.37652587890625,63.42948913574219 L498.2953796386719,64.90261840820312 L498.4795837402344,65.92937469482422 L498.8888854980469,66.44497680664062 L499.467041015625,66.46702575683594 L500.0078125,66.22320556640625 L500.39300537109375,65.93655395507812 M509.45977783203125,53.098472595214844 L509.3917541503906,52.733455657958984 L509.17816162109375,52.212215423583984 L508.75604248046875,51.68893814086914 L508.09600830078125,51.39521026611328 L507.2336120605469,51.42994689941406 L506.2561950683594,51.84070587158203 L505.3011474609375,52.589256286621094 L504.513671875,53.61832046508789 L504.0253601074219,54.84192657470703 L503.9032287597656,56.168270111083984 L504.13458251953125,57.5268669128418 L504.6477966308594,58.88075637817383 L505.3459167480469,60.21231460571289 L506.0985412597656,61.49599075317383 L506.77288818359375,62.699039459228516 L507.2560119628906,63.78858184814453 L507.44085693359375,64.73345947265625 L507.27801513671875,65.53166961669922 L506.7822570800781,66.20183563232422 L506.0063171386719,66.74002075195312 L505.0609130859375,67.13655090332031 L504.0771179199219,67.38029479980469 L503.153564453125,67.47137451171875 L502.4034118652344,67.36278533935547 L501.9059143066406,67.03204345703125 L501.6999206542969,66.48149108886719 L501.70147705078125,65.91577911376953 L501.7960205078125,65.49137115478516 M516.7159423828125,52.674095153808594 L516.6812133789062,52.35935592651367 L516.5349731445312,51.898250579833984 L516.211181640625,51.40188217163086 L515.6709594726562,51.05387878417969 L514.9358520507812,50.936031341552734 L514.0632934570312,51.11933517456055 L513.1669921875,51.63276672363281 L512.3707275390625,52.48963928222656 L511.8106994628906,53.66020202636719 L511.56390380859375,55.07062911987305 L511.6578674316406,56.62864685058594 L512.0426635742188,58.2485466003418 L512.63037109375,59.83768844604492 L513.3048095703125,61.32632827758789 L513.9479370117188,62.66766357421875 L514.410400390625,63.830078125 L514.609619140625,64.81356811523438 L514.475830078125,65.62823486328125 L513.9971923828125,66.268798828125 L513.2169799804688,66.7243423461914 L512.215087890625,66.98116302490234 L511.08282470703125,67.03953552246094 L509.95733642578125,66.94635009765625 L508.99139404296875,66.70577239990234 L508.3231201171875,66.33206176757812 L508.03082275390625,65.83377838134766 L508.01385498046875,65.36093139648438 L508.1204833984375,65.01740264892578 M519.6448974609375,52.96058654785156 L519.6678466796875,53.0046272277832 L519.6879272460938,53.274452209472656 L519.6651611328125,53.935672760009766 L519.544189453125,55.0869026184082 L519.2944946289062,56.67390823364258 L518.9038696289062,58.558982849121094 L518.4212646484375,60.55862808227539 L517.9356689453125,62.4871711730957 L517.5332641601562,64.16763305664062 L517.27197265625,65.46659088134766 L517.151611328125,66.28054809570312 L517.12060546875,66.66282653808594 M520.3269653320312,48.09038162231445 L520.4869384765625,47.54753112792969 L520.7479858398438,46.780067443847656 L521.0564575195312,45.96429443359375 L521.324462890625,45.37860870361328 L521.5086669921875,45.067962646484375 L521.5942993164062,45.0 L521.6180419921875,45.04671096801758 L521.6135864257812,45.130584716796875 M530.1654052734375,51.60105514526367 L530.0591430664062,51.40064239501953 L529.856689453125,51.118080139160156 L529.529052734375,50.84919357299805 L529.0555419921875,50.74937057495117 L528.3915405273438,50.92572021484375 L527.5238037109375,51.46792221069336 L526.4727783203125,52.43039321899414 L525.3192749023438,53.83319091796875 L524.17041015625,55.62824249267578 L523.1420288085938,57.70077133178711 L522.3497924804688,59.887203216552734 L521.8944702148438,62.00386428833008 L521.8453979492188,63.875858306884766 L522.2337646484375,65.37374877929688 L523.0379028320312,66.41634368896484 L524.2389526367188,66.89119720458984 L525.8499755859375,66.6785659790039 L527.3688354492188,66.12008666992188 L528.4683837890625,65.53081512451172 " fill="none" stroke="#000000" stroke-linecap="round" stroke-width="1" /></g></svg>