<svg baseProfile="full" height="100%" version="1.1" viewBox="430,40,140,35" width="100%" xmlns="http://www.w3.org/2000/svg" xmlns:ev="http://www.w3.org/2001/xml-events" xmlns:xlink="http://www.w3.org/1999/xlink"><defs><clipPath id="clip-path"><rect height="120" width="1000" x="0" y="0" /></clipPath></defs><g clip-path="url(#clip-path)"><rect fill="white" height="120" width="1000" x="0" y="0" /><path d="M0,0 M457.434326171875,51.24712371826172 L457.3992004394531,51.214908599853516 L457.3704833984375,51.31306457519531 L457.3671875,51.69511413574219 L457.3895568847656,52.51782989501953 L457.407470703125,53.843101501464844 L457.3885192871094,55.662471771240234 L457.3251037597656,57.90876388549805 L457.2576904296875,60.46055221557617 L457.2381591796875,63.15110397338867 L457.305908203125,65.79542541503906 L457.4603271484375,68.20365905761719 L457.669921875,70.1631851196289 L457.8954772949219,71.52439880371094 L458.09783935546875,72.22257232666016 L458.2406311035156,72.42313385009766 L458.3221435546875,72.3641586303711 M452.2043151855469,50.81953430175781 L452.16375732421875,50.64585494995117 L452.2785949707031,50.420997619628906 L452.73419189453125,50.19917678833008 L453.70123291015625,50.03412628173828 L455.22906494140625,49.8802490234375 L457.2464904785156,49.686363220214844 L459.61785888671875,49.417869567871094 L462.14068603515625,49.09126281738281 L464.5996398925781,48.75260925292969 L466.8067626953125,48.44782638549805 L468.5760498046875,48.22145080566406 L469.6425476074219,48.1463623046875 L469.88214111328125,48.26881408691406 L469.30389404296875,48.60675048828125 L468.4026184082031,49.00489044189453 L467.6337890625,49.32384490966797 M455.5999755859375,61.52302551269531 L455.9359130859375,61.58366775512695 L456.70672607421875,61.540504455566406 L458.0037536621094,61.30134963989258 L459.7524719238281,60.834495544433594 L461.8013916015625,60.2662239074707 L463.91986083984375,59.72324752807617 L465.9071960449219,59.31999588012695 L467.6221008300781,59.11637496948242 L468.9770812988281,59.11206817626953 L469.9481506347656,59.274898529052734 L470.5329895019531,59.491607666015625 L470.80462646484375,59.66395950317383 M475.4144287109375,58.4909782409668 L475.2109680175781,58.18246841430664 L474.7899475097656,57.76993942260742 L474.09869384765625,57.4288215637207 L473.167236328125,57.421993255615234 L472.0491638183594,57.87605667114258 L470.87017822265625,58.83573913574219 L469.7932434082031,60.223411560058594 L468.9891052246094,61.91128921508789 L468.5670166015625,63.70964431762695 L468.57525634765625,65.427978515625 L468.9915466308594,66.88176727294922 L469.7484130859375,67.9222640991211 L470.7560729980469,68.44634246826172 L471.90509033203125,68.40032958984375 L473.0898742675781,67.782470703125 L474.2012939453125,66.65824127197266 L475.1553649902344,65.15039825439453 L475.8917541503906,63.41574478149414 L476.3941345214844,61.653358459472656 L476.67071533203125,60.06019592285156 L476.7767639160156,58.78932571411133 L476.7633361816406,57.933536529541016 L476.6923828125,57.54948806762695 L476.61376953125,57.63575744628906 L476.56475830078125,58.19895935058594 L476.56585693359375,59.23330307006836 L476.6364440917969,60.6539192199707 L476.78765869140625,62.311302185058594 L477.03375244140625,64.02938842773438 L477.39471435546875,65.6124496459961 L477.8499755859375,66.92481994628906 L478.378662109375,67.83922576904297 L478.93402099609375,68.28440856933594 L479.470458984375,68.26480102539062 L479.8810119628906,68.00556182861328 L480.1339416503906,67.71876525878906 M480.8506774902344,58.21513748168945 L480.8333740234375,58.64415740966797 L480.8316345214844,59.493133544921875 L480.8626708984375,60.76518630981445 L480.9435119628906,62.30564880371094 L481.0711364746094,63.94413757324219 L481.24090576171875,65.49537658691406 L481.4363708496094,66.80621337890625 L481.6296691894531,67.75175476074219 L481.7919616699219,68.22834014892578 L481.9111022949219,68.1808853149414 L482.0051574707031,67.5823745727539 L482.126708984375,66.45369720458984 L482.3418884277344,64.90833282470703 L482.7161865234375,63.11107635498047 L483.2992858886719,61.239498138427734 L484.1015930175781,59.48775863647461 L485.0906982421875,58.00816345214844 L486.2094421386719,56.91106414794922 L487.3749694824219,56.286773681640625 L488.5076904296875,56.183265686035156 L489.5430603027344,56.59329605102539 L490.41900634765625,57.47749710083008 L491.0955505371094,58.753719329833984 L491.57183837890625,60.31053161621094 L491.8606872558594,62.00658416748047 L492.011962890625,63.69052505493164 L492.0935974121094,65.21871948242188 L492.17193603515625,66.41734313964844 L492.29901123046875,67.16748046875 L492.4990539550781,67.43437194824219 L492.7002563476562,67.38426208496094 L492.8501281738281,67.2153549194336 M496.4468078613281,45.0 L496.5099792480469,45.17748260498047 L496.62152099609375,45.693206787109375 L496.7643127441406,46.685604095458984 L496.9023132324219,48.1871452331543 L497.0306396484375,50.12796401977539 L497.1509094238281,52.38865661621094 L497.2821350097656,54.82830810546875 L497.443115234375,57.326725006103516 L497.6287841796875,59.74981689453125 L497.8182067871094,61.963443756103516 L498.0061950683594,63.86603927612305 L498.1889343261719,65.33723449707031 L498.3671569824219,66.28434753417969 L498.5426940917969,66.7057876586914 L498.683349609375,66.7625503540039 L498.768798828125,66.65234375 M494.3785400390625,56.92879104614258 L494.3975524902344,56.90627670288086 L494.5921325683594,56.89504623413086 L495.0789489746094,56.90847396850586 L496.0074462890625,56.95037078857422 L497.3531188964844,56.99894714355469 L499.0041198730469,57.03950500488281 L500.4660339355469,57.06161117553711 L501.4472961425781,57.07093048095703 M511.27276611328125,56.53769302368164 L510.9918212890625,56.31549072265625 L510.4479064941406,56.020263671875 L509.61309814453125,55.77994918823242 L508.5491943359375,55.78904342651367 L507.3235778808594,56.158668518066406 L506.03912353515625,56.93721008300781 L504.83251953125,58.096858978271484 L503.8476867675781,59.546142578125 L503.2029724121094,61.12903594970703 L502.9881896972656,62.661380767822266 L503.251953125,63.959754943847656 L503.957275390625,64.86461639404297 L505.032958984375,65.27802276611328 L506.3566589355469,65.16152954101562 L507.7933349609375,64.53707122802734 L509.21746826171875,63.47605895996094 L510.5140686035156,62.08915328979492 L511.57086181640625,60.50529861450195 L512.3306274414062,58.89578628540039 L512.7789306640625,57.436668395996094 L512.9600219726562,56.27420425415039 L512.9503173828125,55.514591217041016 L512.832763671875,55.22106170654297 L512.671875,55.40414047241211 L512.5307006835938,56.08441925048828 L512.45458984375,57.225929260253906 L512.4883422851562,58.71885681152344 L512.6647338867188,60.406349182128906 L513.0038452148438,62.099082946777344 L513.4769287109375,63.61725616455078 L514.0322875976562,64.84976196289062 L514.6297607421875,65.66082000732422 L515.2306518554688,65.97917175292969 L515.8209228515625,65.81510925292969 L516.2988891601562,65.42562866210938 L516.6050415039062,65.05094146728516 M521.7359008789062,54.0477409362793 L521.5355224609375,53.77180862426758 L521.1150512695312,53.46694564819336 L520.42822265625,53.30607986450195 L519.5264282226562,53.48774719238281 L518.5081787109375,54.025962829589844 L517.5359497070312,54.8485107421875 L516.8041381835938,55.82111358642578 L516.5107421875,56.84354782104492 L516.78125,57.823097229003906 L517.6633911132812,58.704647064208984 L519.0944213867188,59.46897506713867 L520.9332275390625,60.14303970336914 L522.9449462890625,60.770591735839844 L524.8703002929688,61.38941955566406 L526.4556884765625,62.016605377197266 L527.497802734375,62.64352798461914 L527.8717041015625,63.247772216796875 L527.5776977539062,63.8222541809082 L526.67578125,64.35812377929688 L525.3145751953125,64.8309555053711 L523.7001953125,65.2110824584961 L522.06689453125,65.47174835205078 L520.6124877929688,65.59590148925781 L519.54833984375,65.52823638916016 L518.986328125,65.24288940429688 L518.9395141601562,64.74124908447266 L519.1748657226562,64.21613311767578 L519.46533203125,63.82112503051758 M529.4063110351562,55.968955993652344 L529.43505859375,56.22541046142578 L529.4817504882812,56.74132537841797 L529.5411987304688,57.542423248291016 L529.6095581054688,58.58595657348633 L529.6920166015625,59.84247970581055 L529.7967529296875,61.25192642211914 L529.92724609375,62.72455978393555 L530.0923461914062,64.04805755615234 L530.282470703125,64.99510955810547 L530.4868774414062,65.41442108154297 L530.6553344726562,65.43280792236328 L530.76220703125,65.26567840576172 M528.7615356445312,46.76966857910156 L528.7266845703125,46.64931869506836 L528.7200317382812,46.55537796020508 L528.739013671875,46.5119743347168 L528.7811279296875,46.54323196411133 M538.9168090820312,56.707759857177734 L538.7693481445312,56.388946533203125 L538.4354248046875,55.89756774902344 L537.8563842773438,55.37281799316406 L537.0304565429688,55.05872344970703 L536.0005493164062,55.120418548583984 L534.8552856445312,55.64559555053711 L533.7271728515625,56.60519027709961 L532.7859497070312,57.896644592285156 L532.1707153320312,59.35204315185547 L531.9758911132812,60.78142547607422 L532.2484130859375,62.01790237426758 L532.96142578125,62.91732406616211 L534.0523681640625,63.382347106933594 L535.4212646484375,63.36470031738281 L536.9102783203125,62.85496520996094 L538.3497314453125,61.89872741699219 L539.5851440429688,60.59982681274414 L540.500244140625,59.09349060058594 L541.080078125,57.55536651611328 L541.3643188476562,56.162681579589844 L541.4224853515625,55.053585052490234 L541.3485107421875,54.33633041381836 L541.2060546875,54.0792350769043 L541.0574340820312,54.31221008300781 L540.9728393554688,55.04087829589844 L541.0060424804688,56.219810485839844 L541.2076416015625,57.73051452636719 L541.6092529296875,59.41594314575195 L542.2066650390625,61.10236740112305 L542.9952392578125,62.64072799682617 L543.9323120117188,63.920101165771484 L544.990234375,64.83953857421875 L546.161865234375,65.31372833251953 L547.1633911132812,65.44441223144531 L547.8362426757812,65.3821792602539 " fill="none" stroke="#000000" stroke-linecap="round" stroke-width="1" /></g></svg>