<svg baseProfile="full" height="100%" version="1.1" viewBox="430,40,140,35" width="100%" xmlns="http://www.w3.org/2000/svg" xmlns:ev="http://www.w3.org/2001/xml-events" xmlns:xlink="http://www.w3.org/1999/xlink">
    <defs>
        <clipPath id="clip-path">
            <rect height="120" width="1000" x="0" y="0" />
        </clipPath>
    </defs>
    <g clip-path="url(#clip-path)">
        <rect fill="white" height="120" width="1000" x="0" y="0" />
        <path d="M0,0 M460.4436340332031,46.976654052734375 L460.2694396972656,46.622291564941406 L459.88629150390625,46.09074020385742 L459.2145080566406,45.507205963134766 L458.203369140625,45.1015510559082 L456.77886962890625,45.0 L454.92010498046875,45.301795959472656 L452.6706237792969,46.04464340209961 L450.1581726074219,47.22187805175781 L447.5927429199219,48.777435302734375 L445.21759033203125,50.64162826538086 L443.2247619628906,52.72018814086914 L441.74212646484375,54.90461730957031 L440.84698486328125,57.08567428588867 L440.556396484375,59.131568908691406 L440.8830871582031,60.92314529418945 L441.81219482421875,62.365760803222656 L443.2747497558594,63.387535095214844 L445.1632995605469,63.96290969848633 L447.3500671386719,64.12608337402344 L449.6670837402344,63.92893981933594 L451.970947265625,63.4421272277832 L454.1157531738281,62.719017028808594 L455.9791564941406,61.80003356933594 L457.4757995605469,60.73526382446289 L458.55206298828125,59.590755462646484 L459.15869140625,58.43739700317383 L459.30255126953125,57.35721969604492 L458.9850158691406,56.41505813598633 L458.2262878417969,55.65774154663086 L457.08349609375,55.11819076538086 L455.66046142578125,54.80371856689453 L454.0778503417969,54.71378707885742 L452.5123596191406,54.839813232421875 L451.10894775390625,55.14884948730469 L449.9551086425781,55.58172607421875 L449.1753845214844,56.04878234863281 L448.84930419921875,56.44300079345703 L448.9842834472656,56.69764709472656 L449.3507995605469,56.81389236450195 L449.7213134765625,56.83591842651367 M462.0166931152344,56.309696197509766 L461.9117736816406,56.72789001464844 L461.74609375,57.50769805908203 L461.5274963378906,58.627681732177734 L461.2858581542969,59.9330940246582 L461.0415954589844,61.305419921875 L460.80029296875,62.5866584777832 L460.59356689453125,63.656463623046875 L460.4554443359375,64.43695068359375 L460.3920593261719,64.88676452636719 L460.385986328125,64.9996337890625 L460.4359130859375,64.7755126953125 L460.5183410644531,64.1788101196289 L460.64910888671875,63.19467544555664 L460.84765625,61.8835334777832 L461.1296691894531,60.343116760253906 L461.51263427734375,58.71699523925781 L462.0357971191406,57.149078369140625 L462.72015380859375,55.74393844604492 L463.5804138183594,54.570655822753906 L464.6400451660156,53.68828582763672 L465.8543701171875,53.111026763916016 L467.1587219238281,52.82394027709961 L468.2482604980469,52.73948287963867 L468.9523620605469,52.75745391845703 M477.8324890136719,56.03941345214844 L477.5857238769531,55.741973876953125 L477.1091613769531,55.34242630004883 L476.3582458496094,54.98162078857422 L475.3523254394531,54.85623550415039 L474.1156921386719,55.0386962890625 L472.7183837890625,55.56325149536133 L471.2904357910156,56.4017333984375 L470.01336669921875,57.5002326965332 L469.0364685058594,58.74884033203125 L468.480712890625,60.01278305053711 L468.41937255859375,61.15862274169922 L468.86602783203125,62.08354949951172 L469.7996826171875,62.7154426574707 L471.1575622558594,63.00278091430664 L472.80126953125,62.90943145751953 L474.5800476074219,62.42762756347656 L476.3150939941406,61.59535217285156 L477.8434753417969,60.49988555908203 L479.0337219238281,59.271507263183594 L479.8005676269531,58.04285430908203 L480.1192321777344,56.948150634765625 L480.09747314453125,56.07585525512695 L479.8764343261719,55.48544692993164 L479.64678955078125,55.187164306640625 L479.5418395996094,55.142704010009766 L479.60198974609375,55.25816345214844 L479.73907470703125,55.416717529296875 L479.87774658203125,55.5329704284668 M490.0968017578125,45.21282196044922 L490.0148010253906,45.51194763183594 L489.88055419921875,46.15471649169922 L489.69903564453125,47.203426361083984 L489.48785400390625,48.61479949951172 L489.2463684082031,50.331565856933594 L488.9825744628906,52.26622772216797 L488.72479248046875,54.32964324951172 L488.4947509765625,56.41221618652344 L488.31524658203125,58.39155960083008 L488.2128601074219,60.14385986328125 L488.1954345703125,61.58480453491211 L488.2392272949219,62.624168395996094 L488.3033447265625,63.22394561767578 L488.33428955078125,63.407413482666016 L488.3240661621094,63.340415954589844 L488.29632568359375,63.1904411315918 M485.10577392578125,56.25189208984375 L485.2925109863281,56.207542419433594 L485.75616455078125,56.158668518066406 L486.5826416015625,56.12168884277344 L487.8468322753906,56.11789321899414 L489.48663330078125,56.135986328125 L491.355712890625,56.16236877441406 L492.9530029296875,56.182193756103516 L493.990478515625,56.19480895996094 M496.15570068359375,59.643741607666016 L496.3800048828125,59.6312370300293 L496.9041748046875,59.53246307373047 L497.7752685546875,59.28364181518555 L498.9400939941406,58.84592819213867 L500.27471923828125,58.23468017578125 L501.6343688964844,57.48060989379883 L502.90386962890625,56.64822006225586 L503.9896240234375,55.797977447509766 L504.7841796875,54.98865509033203 L505.21929931640625,54.28015899658203 L505.22747802734375,53.72826385498047 L504.7694396972656,53.37449645996094 L503.86090087890625,53.278018951416016 L502.5628662109375,53.47616195678711 L500.9652099609375,53.97937774658203 L499.2208251953125,54.766326904296875 L497.5231018066406,55.78941345214844 L496.06939697265625,56.96634292602539 L495.0403137207031,58.21438217163086 L494.5726623535156,59.43210220336914 L494.7376403808594,60.51565933227539 L495.53570556640625,61.373558044433594 L496.912353515625,61.95395278930664 L498.8451232910156,62.2054328918457 L501.1892395019531,62.13920211791992 L503.736083984375,61.81208801269531 L505.8583679199219,61.42341995239258 L507.2129821777344,61.121307373046875 M516.08251953125,52.96684646606445 L515.7244873046875,52.78824234008789 L515.05029296875,52.60406494140625 L514.0466918945312,52.54146957397461 L512.8247680664062,52.722251892089844 L511.5132751464844,53.13828659057617 L510.3041076660156,53.73072052001953 L509.3985595703125,54.41926574707031 L508.97052001953125,55.14553451538086 L509.12109375,55.87181091308594 L509.87091064453125,56.55108642578125 L511.19073486328125,57.15431213378906 L512.9224853515625,57.66712188720703 L514.8577880859375,58.11307907104492 L516.7348022460938,58.54043960571289 L518.325439453125,59.00148010253906 L519.47509765625,59.515220642089844 L520.13916015625,60.06585693359375 L520.2892456054688,60.60744094848633 L519.9512329101562,61.091697692871094 L519.1480102539062,61.485496520996094 L517.9362182617188,61.76472091674805 L516.4180908203125,61.91743087768555 L514.7384033203125,61.9443359375 L513.0499877929688,61.843379974365234 L511.53460693359375,61.63884353637695 L510.32574462890625,61.37385177612305 L509.5414733886719,61.13686752319336 L509.1578674316406,60.98035430908203 M531.5424194335938,55.21831512451172 L531.4478759765625,54.86691665649414 L531.2679443359375,54.33049011230469 L530.9703369140625,53.71066665649414 L530.5220336914062,53.18544006347656 L529.8624877929688,52.82778549194336 L528.9909057617188,52.714271545410156 L527.937255859375,52.88504409790039 L526.7948608398438,53.382530212402344 L525.6666259765625,54.19914245605469 L524.64208984375,55.27309036254883 L523.80419921875,56.5147705078125 L523.2212524414062,57.82013702392578 L522.9533081054688,59.08256912231445 L523.052001953125,60.1979866027832 L523.5418090820312,61.059383392333984 L524.4159545898438,61.55989456176758 L525.6470947265625,61.630775451660156 L527.1475830078125,61.24640655517578 L528.7965087890625,60.45392990112305 L530.439208984375,59.348236083984375 L531.9249267578125,58.05936050415039 L533.1356811523438,56.71881866455078 L534.01123046875,55.463836669921875 L534.5546875,54.41005325317383 L534.8189697265625,53.62430191040039 L534.88671875,53.1395149230957 L534.8175659179688,52.98257827758789 L534.6500244140625,53.18655014038086 L534.383544921875,53.810123443603516 L534.040283203125,54.89234161376953 L533.64990234375,56.373802185058594 L533.257568359375,58.147159576416016 L532.88525390625,60.08029556274414 L532.5695190429688,62.06430435180664 L532.3128662109375,64.02022552490234 L532.16162109375,65.87957763671875 L532.1483764648438,67.52088928222656 L532.2833862304688,68.83000946044922 L532.4708862304688,69.68196105957031 L532.636962890625,70.10523223876953 M538.5850830078125,53.469058990478516 L538.572021484375,53.49987030029297 L538.514404296875,53.703426361083984 L538.3626098632812,54.20376968383789 L538.0806884765625,55.06136703491211 L537.681884765625,56.22176742553711 L537.255615234375,57.551063537597656 L536.929443359375,58.8868522644043 L536.826416015625,60.08873748779297 L537.0076293945312,61.03559875488281 L537.4915771484375,61.6370849609375 L538.2542724609375,61.82465362548828 L539.2587280273438,61.557586669921875 L540.4554443359375,60.842384338378906 L541.7740478515625,59.751251220703125 L543.1157836914062,58.39412307739258 L544.3883056640625,56.92021179199219 L545.480712890625,55.47539138793945 L546.3229370117188,54.1925048828125 L546.8817138671875,53.160301208496094 L547.1671752929688,52.43894958496094 L547.2249145507812,52.06772232055664 L547.1143188476562,52.06842041015625 L546.8557739257812,52.462127685546875 L546.473876953125,53.26423263549805 L546.0064086914062,54.4234504699707 L545.5195922851562,55.834922790527344 L545.1140747070312,57.35396957397461 L544.9500732421875,58.81320571899414 L545.1096801757812,60.06221008300781 L545.5949096679688,61.00995635986328 L546.1625366210938,61.595069885253906 L546.6056518554688,61.868431091308594 M550.7684936523438,58.971412658691406 L551.0634765625,58.8660774230957 L551.696533203125,58.61456298828125 L552.6994018554688,58.169654846191406 L553.9714965820312,57.52964782714844 L555.3680419921875,56.726627349853516 L556.736083984375,55.815006256103516 L557.9204711914062,54.87145233154297 L558.8120727539062,53.959266662597656 L559.335205078125,53.13056945800781 L559.443603515625,52.42525863647461 L559.1339111328125,51.888099670410156 L558.4115600585938,51.579071044921875 L557.2908935546875,51.578468322753906 L555.8529663085938,51.92931365966797 L554.253662109375,52.634647369384766 L552.7107543945312,53.6269645690918 L551.4977416992188,54.80207824707031 L550.8283081054688,56.047367095947266 L550.8267822265625,57.25619125366211 L551.6546630859375,58.322261810302734 L553.458251953125,59.17578887939453 L555.4559936523438,59.733680725097656 L557.0614013671875,60.01496124267578 " fill="none" stroke="#000000" stroke-linecap="round" stroke-width="1" />
    </g>
</svg>