<svg baseProfile="full" height="100%" version="1.1" viewBox="430,40,140,35" width="100%" xmlns="http://www.w3.org/2000/svg" xmlns:ev="http://www.w3.org/2001/xml-events" xmlns:xlink="http://www.w3.org/1999/xlink">
<defs><clipPath id="clip-path"><rect height="120" width="1000" x="0" y="0" /></clipPath></defs><g clip-path="url(#clip-path)"><rect fill="white" height="120" width="1000" x="0" y="0" /><path d="M0,0 M433.2107849121094,46.275917053222656 L433.1755676269531,46.276798248291016 L433.1470947265625,46.397457122802734 L433.1297912597656,46.75834274291992 L433.14544677734375,47.48661804199219 L433.1710205078125,48.62986373901367 L433.1994323730469,50.184906005859375 L433.2300109863281,52.08634567260742 L433.26800537109375,54.249000549316406 L433.2923889160156,56.587554931640625 L433.3157653808594,59.0445556640625 L433.325439453125,61.54791259765625 L433.3177490234375,64.00800323486328 L433.2985534667969,66.27729797363281 L433.283447265625,68.21974182128906 L433.27484130859375,69.74285125732422 L433.28302001953125,70.77197265625 L433.2933044433594,71.30265045166016 L433.29058837890625,71.38871002197266 L433.2749938964844,71.22856140136719 L433.2577819824219,71.01606750488281 M443.4094543457031,45.0 L443.48419189453125,45.13117218017578 L443.60052490234375,45.48826217651367 L443.7423400878906,46.177467346191406 L443.8757629394531,47.24562454223633 L443.97607421875,48.674861907958984 L444.04595947265625,50.41033172607422 L444.0818176269531,52.38097381591797 L444.0976867675781,54.509620666503906 L444.1189880371094,56.71902847290039 L444.17852783203125,58.925540924072266 L444.2705078125,61.02922439575195 L444.41973876953125,62.944297790527344 L444.60028076171875,64.60166931152344 L444.7714538574219,65.94598388671875 L444.9067687988281,66.9674072265625 L444.94903564453125,67.63630676269531 L444.8275451660156,67.94132232666016 L444.5303955078125,67.91092681884766 L444.1851806640625,67.7142562866211 L443.90106201171875,67.49786376953125 M432.6614990234375,58.831809997558594 L432.8811340332031,58.844932556152344 L433.4195251464844,58.825992584228516 L434.3764953613281,58.75981521606445 L435.7968444824219,58.62947082519531 L437.6041564941406,58.45944595336914 L439.59686279296875,58.26993179321289 L441.253173828125,58.10893630981445 L442.30401611328125,58.00163650512695 M456.1923828125,56.886131286621094 L456.05615234375,56.756561279296875 L455.7798767089844,56.574031829833984 L455.32635498046875,56.402835845947266 L454.6968078613281,56.355857849121094 L453.900390625,56.51311492919922 L452.9823913574219,56.94814682006836 L452.0202941894531,57.69654846191406 L451.07879638671875,58.76108169555664 L450.2183532714844,60.10054397583008 L449.5058288574219,61.64565658569336 L449.00750732421875,63.29479217529297 L448.798828125,64.939453125 L448.9345397949219,66.45911407470703 L449.392333984375,67.72830963134766 L450.1366271972656,68.64289855957031 L451.1089172363281,69.13259887695312 L452.2306823730469,69.15097045898438 L453.4440002441406,68.69558715820312 L454.67938232421875,67.79659271240234 L455.8420104980469,66.51687622070312 L456.8804016113281,64.96017456054688 L457.74853515625,63.264225006103516 L458.4132080078125,61.55569839477539 L458.8918762207031,59.975772857666016 L459.1985778808594,58.6451301574707 L459.3572082519531,57.63428497314453 L459.4164733886719,56.97305679321289 L459.41412353515625,56.67377853393555 L459.3589172363281,56.72203826904297 L459.289794921875,57.1521110534668 L459.233642578125,57.99074935913086 L459.2091979980469,59.19780731201172 L459.24395751953125,60.673362731933594 L459.3681640625,62.27936553955078 L459.5767822265625,63.86431884765625 L459.9163818359375,65.32176208496094 L460.38262939453125,66.56195068359375 L460.9184875488281,67.51878356933594 L461.46051025390625,68.16609191894531 L461.9604797363281,68.45234680175781 L462.3684997558594,68.3752670288086 L462.71820068359375,67.98307800292969 L462.97412109375,67.50322723388672 L463.1250915527344,67.11972045898438 M466.5101623535156,55.9627571105957 L466.5888671875,56.11473846435547 L466.7124328613281,56.46787643432617 L466.8575134277344,57.086952209472656 L466.9839172363281,57.98308563232422 L467.0727844238281,59.14198303222656 L467.1160583496094,60.48748016357422 L467.1152038574219,61.919368743896484 L467.09033203125,63.31749725341797 L467.0760803222656,64.55805969238281 L467.08233642578125,65.53829193115234 L467.1111755371094,66.19831848144531 L467.13018798828125,66.49310302734375 L467.1154479980469,66.4150619506836 L467.0733642578125,65.95372009277344 L467.0579833984375,65.11468505859375 L467.1173095703125,63.941505432128906 L467.3220520019531,62.51955032348633 L467.69110107421875,60.95444107055664 L468.2380676269531,59.35933303833008 L468.9614562988281,57.82878112792969 L469.8497009277344,56.450557708740234 L470.8885803222656,55.3189811706543 L472.055908203125,54.498382568359375 L473.2889709472656,54.01629638671875 L474.504638671875,53.83073806762695 L475.6291809082031,53.87347412109375 L476.5823669433594,54.04802703857422 L477.3431396484375,54.27939987182617 L477.914306640625,54.50939178466797 L478.3179931640625,54.70594787597656 L478.55926513671875,54.83562469482422 L478.6799621582031,54.90641403198242 M482.79949951171875,54.233726501464844 L482.80303955078125,54.68140411376953 L482.8357849121094,55.50666427612305 L482.8821716308594,56.69337844848633 L482.9070129394531,58.11024856567383 L482.8714294433594,59.690433502197266 L482.7535095214844,61.36338806152344 L482.56439208984375,63.03364181518555 L482.3711242675781,64.56040954589844 L482.2094421386719,65.79303741455078 L482.1101379394531,66.64994049072266 L482.0771789550781,67.10902404785156 L482.07232666015625,67.18730926513672 L482.06890869140625,66.88360595703125 L482.08673095703125,66.16361999511719 L482.1440734863281,65.00719451904297 L482.2956848144531,63.49235916137695 L482.5889587402344,61.74538803100586 L483.0478515625,59.905487060546875 L483.6881408691406,58.10837936401367 L484.5052795410156,56.443538665771484 L485.4325866699219,54.995574951171875 L486.4036865234375,53.8551025390625 L487.36981201171875,53.088470458984375 L488.2829284667969,52.7231330871582 L489.13128662109375,52.77911376953125 L489.8918762207031,53.23955535888672 L490.5215148925781,54.08224105834961 L491.0073547363281,55.2486572265625 L491.3791198730469,56.660579681396484 L491.6294860839844,58.20703887939453 L491.7906494140625,59.756710052490234 L491.8614501953125,61.16462326049805 L491.8416442871094,62.30842590332031 L491.7675476074219,63.11896896362305 L491.6960754394531,63.579444885253906 L491.62939453125,63.68918228149414 L491.5981750488281,63.424747467041016 L491.61712646484375,62.76062774658203 L491.7205810546875,61.69669723510742 L491.9667663574219,60.34000778198242 L492.4079284667969,58.83024597167969 L493.05560302734375,57.30913543701172 L493.92706298828125,55.87911605834961 L495.0130310058594,54.61676025390625 L496.28009033203125,53.58345031738281 L497.66546630859375,52.86037826538086 L499.08807373046875,52.49884796142578 L500.4610595703125,52.533897399902344 L501.7236328125,52.975807189941406 L502.8230285644531,53.80842971801758 L503.7142333984375,54.99177169799805 L504.3556823730469,56.438594818115234 L504.73565673828125,58.032108306884766 L504.893310546875,59.65538024902344 L504.8929138183594,61.19443893432617 L504.8370056152344,62.53400421142578 L504.807861328125,63.58185577392578 L504.842041015625,64.27577209472656 L504.91009521484375,64.63471221923828 L504.9795227050781,64.75727844238281 M517.7259521484375,53.96239471435547 L517.4630126953125,53.7484245300293 L517.0010986328125,53.46485900878906 L516.3773193359375,53.23067092895508 L515.6524658203125,53.20185470581055 L514.824951171875,53.44424819946289 L513.8987426757812,53.98936462402344 L512.8908081054688,54.81949234008789 L511.8781127929688,55.922393798828125 L510.99884033203125,57.25492477416992 L510.3504333496094,58.73640823364258 L510.0250549316406,60.2612190246582 L510.0719299316406,61.71397399902344 L510.4957275390625,62.96734619140625 L511.2720031738281,63.93486785888672 L512.35498046875,64.54403686523438 L513.6460571289062,64.75736999511719 L515.0480346679688,64.56521606445312 L516.4666748046875,63.98716735839844 L517.8198852539062,63.06105041503906 L519.0220947265625,61.850006103515625 L520.006103515625,60.42420959472656 L520.6790161132812,58.86259078979492 L520.9743041992188,57.2579460144043 L520.8871459960938,55.715576171875 L520.4549560546875,54.346736907958984 L519.7415771484375,53.23047637939453 L518.86572265625,52.40754318237305 L517.9391479492188,51.8916015625 L517.08984375,51.66440963745117 L516.44189453125,51.67985916137695 L516.0521240234375,51.813018798828125 L515.8817138671875,51.95234298706055 M525.0723876953125,52.185951232910156 L524.948486328125,52.226558685302734 L524.7985229492188,52.44129943847656 L524.671875,52.952266693115234 L524.614501953125,53.831947326660156 L524.5821533203125,55.055824279785156 L524.5244750976562,56.53768539428711 L524.4192504882812,58.16984558105469 L524.2835693359375,59.83183288574219 L524.1602172851562,61.39069747924805 L524.0824584960938,62.710365295410156 L524.0568237304688,63.68827819824219 L524.0728759765625,64.2976303100586 L524.10791015625,64.55972290039062 L524.1292114257812,64.49891662597656 L524.135498046875,64.10005187988281 L524.1410522460938,63.32952117919922 L524.190673828125,62.19076156616211 L524.3450317382812,60.7840576171875 L524.6517944335938,59.23160171508789 L525.1380615234375,57.650211334228516 L525.8267822265625,56.11747741699219 L526.7072143554688,54.698368072509766 L527.7405395507812,53.46024703979492 L528.853759765625,52.49383544921875 L529.9732055664062,51.87264633178711 L531.0337524414062,51.639244079589844 L532.00341796875,51.797332763671875 L532.862060546875,52.337249755859375 L533.594482421875,53.22758102416992 L534.1806640625,54.41170120239258 L534.6282348632812,55.821571350097656 L534.932861328125,57.3610725402832 L535.1168212890625,58.909637451171875 L535.20703125,60.34437942504883 L535.248779296875,61.57300567626953 L535.3009033203125,62.498477935791016 L535.4157104492188,63.081329345703125 L535.58740234375,63.332183837890625 L535.76025390625,63.363182067871094 L535.8812866210938,63.296424865722656 M539.7550048828125,52.533782958984375 L539.7723999023438,52.547691345214844 L539.8157958984375,52.672149658203125 L539.901611328125,52.99372100830078 L540.032958984375,53.5950927734375 L540.21142578125,54.4849853515625 L540.4208984375,55.63007736206055 L540.6856689453125,56.954349517822266 L541.0277709960938,58.352474212646484 L541.4863891601562,59.688968658447266 L542.0824584960938,60.85929870605469 L542.8140869140625,61.76118469238281 L543.6612548828125,62.332000732421875 L544.61279296875,62.531532287597656 L545.63720703125,62.33300018310547 L546.7095947265625,61.72316360473633 L547.7799072265625,60.740928649902344 L548.7979736328125,59.45643615722656 L549.7401733398438,57.99281692504883 L550.6018676757812,56.47517395019531 L551.3966674804688,55.026466369628906 L552.130859375,53.74930953979492 L552.7633056640625,52.712730407714844 L553.2543334960938,51.94902420043945 L553.5833129882812,51.48106384277344 L553.7342529296875,51.31834411621094 L553.7391967773438,51.492576599121094 L553.6145629882812,52.04655838012695 L553.3671875,52.99633026123047 L553.0198364257812,54.32503890991211 L552.5753784179688,55.990840911865234 L552.0157470703125,57.93438720703125 L551.3473510742188,60.104339599609375 L550.56884765625,62.46000671386719 L549.6972045898438,64.94287109375 L548.7710571289062,67.47489929199219 L547.830810546875,69.96369171142578 L546.905517578125,72.29987335205078 L546.031982421875,74.39027404785156 L545.25146484375,76.18363952636719 L544.5757446289062,77.60859680175781 L544.0127563476562,78.60679626464844 L543.5770874023438,79.15592956542969 L543.287353515625,79.35169219970703 L543.1327514648438,79.34257507324219 M559.0336303710938,65.24091339111328 L559.0372314453125,65.24983978271484 L559.0390625,65.24270629882812 L559.0341796875,65.22002410888672 L559.0267944335938,65.17538452148438 L559.018798828125,65.12398529052734 L559.014404296875,65.06061553955078 L559.0169067382812,65.00595092773438 L559.0211181640625,64.96188354492188 M567.3385009765625,61.11222457885742 " fill="none" stroke="#000000" stroke-linecap="round" stroke-width="1" /></g></svg>