<svg baseProfile="full" height="100%" version="1.1" viewBox="450,45,150,30" width="100%" xmlns="http://www.w3.org/2000/svg" xmlns:ev="http://www.w3.org/2001/xml-events" xmlns:xlink="http://www.w3.org/1999/xlink"><defs><clipPath id="clip-path"><rect height="120" width="1000" x="0" y="0" /></clipPath></defs><g clip-path="url(#clip-path)"><rect fill="white" height="120" width="1000" x="0" y="0" /><path d="M0,0 M439.4494323730469,71.34980773925781 L439.7393493652344,71.23855590820312 L440.3117980957031,70.82051086425781 L441.1626892089844,69.93407440185547 L442.20263671875,68.49883270263672 L443.34552001953125,66.57672119140625 L444.5179443359375,64.27487182617188 L445.67401123046875,61.728153228759766 L446.78143310546875,59.04416275024414 L447.8201904296875,56.34560775756836 L448.77734375,53.750572204589844 L449.6157531738281,51.41898727416992 L450.2922668457031,49.487770080566406 L450.7735595703125,48.0928955078125 L451.0363464355469,47.309268951416016 L451.1071472167969,47.18385696411133 L451.04541015625,47.70782470703125 L450.9066467285156,48.87306594848633 L450.74658203125,50.59551239013672 L450.6046142578125,52.75234603881836 L450.5128479003906,55.16768264770508 L450.49493408203125,57.646209716796875 L450.5931396484375,59.96282958984375 L450.8062438964844,61.95833206176758 L451.1299133300781,63.46845626831055 L451.55780029296875,64.36537170410156 L452.11181640625,64.55177307128906 L452.82659912109375,63.964839935302734 L453.74017333984375,62.57512664794922 L454.83441162109375,60.50050354003906 L456.06298828125,57.93907165527344 L457.369873046875,55.144432067871094 L458.6929931640625,52.36382293701172 L459.9737243652344,49.83250045776367 L461.119140625,47.73141098022461 L462.04168701171875,46.18110656738281 L462.6919250488281,45.26213455200195 L463.0618896484375,45.0 L463.1836242675781,45.39539337158203 L463.1017150878906,46.4757080078125 L462.83123779296875,48.2327880859375 L462.4174499511719,50.53437423706055 L461.95538330078125,53.21355438232422 L461.5530700683594,56.02641677856445 L461.3223876953125,58.71577835083008 L461.32916259765625,61.06214904785156 L461.570068359375,62.88751983642578 L462.0313720703125,64.05026245117188 L462.7042236328125,64.49664306640625 L463.59088134765625,64.20745086669922 L464.6900939941406,63.22228240966797 L465.95672607421875,61.63928985595703 L467.2998352050781,59.626930236816406 L468.6153869628906,57.406089782714844 L469.7792663574219,55.23440933227539 L470.7080078125,53.35354995727539 L471.3722839355469,51.9229736328125 L471.76385498046875,51.02574920654297 L471.9124450683594,50.69013214111328 L471.84912109375,50.91280746459961 L471.5852966308594,51.720428466796875 L471.1399841308594,53.14016342163086 L470.58770751953125,55.086517333984375 L470.0317687988281,57.40346145629883 L469.61328125,59.86925506591797 L469.432373046875,62.233795166015625 L469.51837158203125,64.2898941040039 L469.8162536621094,65.90017700195312 L470.281005859375,66.94181823730469 L470.8872375488281,67.3391342163086 L471.6560974121094,67.06449890136719 L472.6191711425781,66.15199279785156 L473.75897216796875,64.70880889892578 L474.9984130859375,62.939300537109375 L476.2486877441406,61.09699630737305 L477.39288330078125,59.42548370361328 L478.33807373046875,58.10643768310547 L479.03271484375,57.25632858276367 L479.4521484375,56.92220687866211 L479.63189697265625,57.103946685791016 L479.63330078125,57.791709899902344 L479.4929504394531,58.931396484375 L479.2899169921875,60.39439392089844 L479.0887756347656,61.983707427978516 L478.9550476074219,63.488128662109375 L478.9702453613281,64.69981384277344 L479.1824035644531,65.45819854736328 L479.6156005859375,65.66157531738281 L480.3416748046875,65.27674865722656 L481.38006591796875,64.3204345703125 L482.69964599609375,62.919410705566406 L484.2165222167969,61.30070877075195 L485.7608337402344,59.712890625 L487.1510314941406,58.383827209472656 L488.2696533203125,57.49676513671875 L489.0505065917969,57.12955093383789 L489.4787902832031,57.288639068603516 L489.60601806640625,57.962589263916016 L489.4822998046875,59.062747955322266 L489.1835632324219,60.41312789916992 L488.83209228515625,61.81233215332031 L488.518310546875,63.04742431640625 L488.30926513671875,63.942481994628906 L488.2706298828125,64.40318298339844 L488.45367431640625,64.38307189941406 L488.9125061035156,63.865318298339844 L489.70965576171875,62.913780212402344 L490.7901916503906,61.688232421875 L492.0071716308594,60.403846740722656 L493.16302490234375,59.26502227783203 L494.0916442871094,58.42211151123047 L494.7040710449219,57.95148849487305 L495.0296936035156,57.89082336425781 L495.1556701660156,58.28395462036133 L495.1766357421875,59.13669967651367 L495.1841735839844,60.3680419921875 L495.2725830078125,61.80610656738281 L495.52874755859375,63.234092712402344 L496.0260925292969,64.43489837646484 L496.8096618652344,65.25946044921875 L497.87890625,65.6142349243164 L499.1919860839844,65.45118713378906 L500.673095703125,64.7618179321289 L502.22998046875,63.630157470703125 L503.73974609375,62.207244873046875 L505.0506591796875,60.72037124633789 L506.0509033203125,59.39212417602539 L506.6973876953125,58.38762283325195 L507.00848388671875,57.7847900390625 L507.06695556640625,57.62668228149414 L506.9690246582031,57.90913391113281 L506.7725524902344,58.640140533447266 L506.5328369140625,59.759376525878906 L506.32965087890625,61.13765335083008 L506.2420349121094,62.59037399291992 L506.3336181640625,63.94049072265625 L506.6694641113281,64.97504425048828 L507.2390441894531,65.58036041259766 L507.97021484375,65.7060775756836 L508.6325988769531,65.5426254272461 L509.0823059082031,65.30013275146484 M506.54241943359375,49.03811264038086 L506.52838134765625,49.050209045410156 L506.5505676269531,49.17024230957031 L506.59661865234375,49.3466682434082 L506.6541442871094,49.52793502807617 M514.38232421875,54.82600021362305 L514.2674560546875,55.29399871826172 L514.07177734375,56.1795539855957 L513.8154907226562,57.46419906616211 L513.5632934570312,58.971214294433594 L513.3527221679688,60.5403938293457 L513.2200317382812,61.99825668334961 L513.1737670898438,63.213584899902344 L513.234130859375,64.07417297363281 L513.4058837890625,64.47918701171875 L513.7078857421875,64.36042022705078 L514.16259765625,63.68989562988281 L514.8089599609375,62.522396087646484 L515.6350708007812,61.03070068359375 L516.6185302734375,59.446266174316406 L517.6870727539062,57.97330856323242 L518.7516479492188,56.774532318115234 L519.735595703125,55.94916915893555 L520.6058349609375,55.57146453857422 L521.327392578125,55.70654296875 L521.8778686523438,56.375545501708984 L522.2308349609375,57.50816345214844 L522.3675537109375,58.96599197387695 L522.306884765625,60.518592834472656 L522.116943359375,61.94294738769531 L521.9006958007812,63.062984466552734 L521.752685546875,63.74675369262695 L521.7647705078125,63.90376663208008 L522.0193481445312,63.51580810546875 L522.6026000976562,62.57669448852539 L523.5364379882812,61.198516845703125 L524.803466796875,59.60236740112305 L526.2910766601562,58.0383186340332 L527.8328857421875,56.7373046875 L529.2489013671875,55.860984802246094 L530.4249877929688,55.47132110595703 L531.2657470703125,55.590606689453125 L531.765625,56.22252655029297 L531.9597778320312,57.32196807861328 L531.9169311523438,58.78117752075195 L531.7493896484375,60.4102897644043 L531.607421875,61.99100875854492 L531.6240844726562,63.31773376464844 L531.9168090820312,64.24697875976562 L532.5585327148438,64.6854476928711 L533.569091796875,64.5830307006836 L534.9368286132812,63.94972229003906 L536.5706787109375,62.868263244628906 L538.3375244140625,61.51136016845703 L540.0672607421875,60.08884048461914 L541.5982055664062,58.79402160644531 L542.8170166015625,57.75386047363281 L543.67529296875,57.02679443359375 L544.16943359375,56.60616683959961 L544.3468627929688,56.48249435424805 L544.252685546875,56.627174377441406 L543.9143676757812,57.026737213134766 L543.3705444335938,57.67963409423828 L542.65380859375,58.560035705566406 L541.83837890625,59.620994567871094 L541.0452270507812,60.803855895996094 L540.3855590820312,61.999847412109375 L539.93115234375,63.099708557128906 L539.7373046875,64.01325225830078 L539.805908203125,64.64737701416016 L540.11865234375,64.93326568603516 L540.6800537109375,64.83432006835938 L541.45068359375,64.3082504272461 L542.3603515625,63.373146057128906 L543.3086547851562,62.10913848876953 L544.1826782226562,60.65977478027344 L544.8734130859375,59.21870803833008 L545.353759765625,57.98066329956055 L545.6154174804688,57.060516357421875 L545.7076416015625,56.52957534790039 L545.6661376953125,56.402530670166016 L545.5184936523438,56.679176330566406 L545.2894287109375,57.372196197509766 L545.0428466796875,58.45295715332031 L544.847900390625,59.80345153808594 L544.8087158203125,61.26622009277344 L545.0012817382812,62.65147018432617 L545.463623046875,63.78564453125 L546.2246704101562,64.55277252197266 L547.3056640625,64.85481262207031 L548.7001953125,64.60409545898438 L550.370849609375,63.75421142578125 L552.2239379882812,62.31473922729492 L554.1280517578125,60.37874221801758 L555.9384155273438,58.09882736206055 L557.5432739257812,55.644195556640625 L558.839599609375,53.17385482788086 L559.767333984375,50.83945846557617 L560.3215942382812,48.789466857910156 L560.5505981445312,47.16618728637695 L560.5018310546875,46.08131790161133 L560.2362060546875,45.614437103271484 L559.741943359375,45.80413818359375 L558.9954833984375,46.67549514770508 L558.028564453125,48.22011947631836 L556.9338989257812,50.344703674316406 L555.8543090820312,52.893795013427734 L554.9747314453125,55.65739822387695 L554.4452514648438,58.41508102416992 L554.4497680664062,60.952247619628906 L555.1712036132812,63.11592102050781 L556.1719360351562,64.62836456298828 L557.0637817382812,65.46036529541016 " fill="none" stroke="#000000" stroke-linecap="round" stroke-width="1" /></g></svg>