<svg baseProfile="full" height="100%" version="1.1" viewBox="430,40,140,35" width="100%" xmlns="http://www.w3.org/2000/svg" xmlns:ev="http://www.w3.org/2001/xml-events" xmlns:xlink="http://www.w3.org/1999/xlink"><defs><clipPath id="clip-path"><rect height="120" width="1000" x="0" y="0" /></clipPath></defs><g clip-path="url(#clip-path)"><rect fill="white" height="120" width="1000" x="0" y="0" /><path d="M0,0 M466.5547180175781,48.78956604003906 L466.55364990234375,48.79509353637695 L466.5304260253906,49.05634689331055 L466.5002746582031,49.830604553222656 L466.47613525390625,51.322959899902344 L466.48919677734375,53.54710388183594 L466.5334777832031,56.380271911621094 L466.581298828125,59.584251403808594 L466.6302490234375,62.90237045288086 L466.7147216796875,66.04471588134766 L466.8572998046875,68.73727416992188 L467.0202941894531,70.61126708984375 L467.1547546386719,71.61841583251953 M468.1081237792969,48.40007019042969 L468.15704345703125,49.22331619262695 L468.25750732421875,50.69062042236328 L468.45196533203125,52.670623779296875 L468.7926330566406,54.75569534301758 L469.3417663574219,56.65430450439453 L470.1197509765625,58.13709259033203 L471.102294921875,59.08100891113281 L472.2255554199219,59.436180114746094 L473.40948486328125,59.18869400024414 L474.56561279296875,58.3448600769043 L475.6272277832031,56.96455001831055 L476.5653076171875,55.173423767089844 L477.3876037597656,53.1466178894043 L478.1124572753906,51.081607818603516 L478.7508544921875,49.16632080078125 L479.26446533203125,47.54214096069336 L479.6379089355469,46.287200927734375 L479.8601379394531,45.431522369384766 L479.953857421875,45.0 L479.9644470214844,45.02336120605469 L479.93359375,45.58254623413086 L479.8751525878906,46.77245330810547 L479.8297119140625,48.604270935058594 L479.793212890625,50.98277282714844 L479.7897033691406,53.74238586425781 L479.8410949707031,56.66922378540039 L479.95654296875,59.562713623046875 L480.1404724121094,62.237640380859375 L480.38134765625,64.5114517211914 L480.6266784667969,66.24189758300781 L480.82122802734375,67.3236083984375 L480.9351501464844,67.83739471435547 M485.658935546875,53.90343475341797 L485.7987976074219,54.053428649902344 L485.97393798828125,54.50719451904297 L486.1358947753906,55.419830322265625 L486.2330627441406,56.85354995727539 L486.29388427734375,58.73093032836914 L486.3674621582031,60.87298583984375 L486.45660400390625,63.02938461303711 L486.539306640625,64.87657928466797 L486.5947570800781,66.15286254882812 L486.61846923828125,66.7318344116211 L486.62017822265625,66.79718780517578 L486.62237548828125,66.62828063964844 M487.06011962890625,46.78348922729492 L487.11346435546875,46.40605926513672 L487.2096252441406,45.95329666137695 L487.3133850097656,45.57108688354492 L487.38958740234375,45.40530776977539 M491.3043212890625,53.854034423828125 L491.3465270996094,54.28496551513672 L491.3893737792969,55.163612365722656 L491.4239196777344,56.53789138793945 L491.4466552734375,58.299713134765625 L491.4827575683594,60.31718444824219 L491.541015625,62.3588752746582 L491.5780334472656,64.17982482910156 L491.57427978515625,65.56270599365234 L491.5303955078125,66.3702163696289 L491.4693298339844,66.55873107910156 L491.4314880371094,66.15421295166016 L491.46185302734375,65.17366027832031 L491.5605163574219,63.67402267456055 L491.7513122558594,61.78109359741211 L492.05419921875,59.690250396728516 L492.50128173828125,57.63176727294922 L493.1329040527344,55.81818389892578 L493.9895935058594,54.37745666503906 L495.0857849121094,53.35455322265625 L496.42327880859375,52.743492126464844 L497.9637756347656,52.48858642578125 L499.66033935546875,52.511714935302734 L501.4319152832031,52.71783447265625 L503.180908203125,52.993045806884766 L504.7862243652344,53.21405029296875 L506.14117431640625,53.305931091308594 L507.15155029296875,53.238319396972656 L507.77874755859375,53.037261962890625 L508.0095520019531,52.749324798583984 L507.88018798828125,52.41059112548828 L507.4222106933594,52.05791473388672 L506.69183349609375,51.76776885986328 L505.7456970214844,51.65825653076172 L504.65667724609375,51.865203857421875 L503.4967956542969,52.502601623535156 L502.376708984375,53.60305404663086 L501.3933410644531,55.11479568481445 L500.6505432128906,56.90975570678711 L500.2216491699219,58.813751220703125 L500.1357116699219,60.63017654418945 L500.37109375,62.18507766723633 L500.89239501953125,63.33479690551758 L501.6330871582031,63.98202896118164 L502.533447265625,64.05903625488281 L503.5288391113281,63.5402717590332 L504.535888671875,62.44459533691406 L505.46759033203125,60.85922622680664 L506.2685546875,58.9442024230957 L506.9032287597656,56.94551086425781 L507.37322998046875,55.127159118652344 L507.7037048339844,53.69693374633789 L507.8970947265625,52.77186584472656 L507.9559020996094,52.39901351928711 L507.91302490234375,52.57917404174805 L507.8197326660156,53.33348083496094 L507.75799560546875,54.63234329223633 L507.823486328125,56.31690216064453 L508.0684814453125,58.13787078857422 L508.4953918457031,59.845054626464844 L509.13372802734375,61.19825744628906 L509.9618225097656,62.07815170288086 L510.9379577636719,62.45907974243164 L511.80255126953125,62.4962272644043 L512.3908081054688,62.377281188964844 M519.21923828125,52.28580856323242 L519.0911254882812,51.85257339477539 L518.7754516601562,51.290470123291016 L518.2169189453125,50.814605712890625 L517.4252319335938,50.71711349487305 L516.4664916992188,51.092159271240234 L515.4669799804688,51.952430725097656 L514.57080078125,53.20271301269531 L513.8974609375,54.70964813232422 L513.5348510742188,56.28004455566406 L513.5232543945312,57.71823501586914 L513.8580322265625,58.86720275878906 L514.521484375,59.616886138916016 L515.4584350585938,59.889556884765625 L516.5750732421875,59.646202087402344 L517.7445678710938,58.89687728881836 L518.8275756835938,57.750694274902344 L519.6871948242188,56.409645080566406 L520.2685546875,55.1263427734375 L520.5872192382812,54.089691162109375 L520.7015380859375,53.414772033691406 L520.6985473632812,53.13874816894531 L520.6535034179688,53.29178237915039 L520.602783203125,53.92903518676758 L520.5810546875,55.11329650878906 L520.6202392578125,56.82793045043945 L520.7125854492188,58.99662399291992 L520.844482421875,61.484046936035156 L520.9580078125,64.1038589477539 L520.9801025390625,66.65526580810547 L520.84033203125,68.93038940429688 L520.4888916015625,70.74281311035156 L519.8989868164062,71.979248046875 L519.0988159179688,72.62054443359375 L518.138671875,72.69464874267578 L517.138916015625,72.28131866455078 L516.2374877929688,71.46926879882812 L515.5730590820312,70.35637664794922 L515.2639770507812,69.04684448242188 L515.3888549804688,67.63667297363281 L515.9651489257812,66.18067932128906 L517.0009155273438,64.71533966064453 L518.4387817382812,63.2557373046875 L520.1951904296875,61.806068420410156 L522.1603393554688,60.362815856933594 L524.1953735351562,58.90733337402344 L526.1526489257812,57.410003662109375 L527.90869140625,55.83951187133789 L529.33544921875,54.200225830078125 L530.3572998046875,52.5490837097168 L530.9405517578125,50.98125457763672 L531.0875854492188,49.612667083740234 L530.8546752929688,48.55554962158203 L530.3274536132812,47.87565612792969 L529.594482421875,47.61711502075195 L528.760986328125,47.81062698364258 L527.9190673828125,48.45852279663086 L527.1756591796875,49.53620147705078 L526.6569213867188,50.9629020690918 L526.4695434570312,52.588829040527344 L526.6958618164062,54.251399993896484 L527.346435546875,55.788978576660156 L528.343994140625,57.06832504272461 L529.6310424804688,57.97275161743164 L531.18115234375,58.402549743652344 L532.5594482421875,58.47447204589844 L533.5238647460938,58.3648796081543 " fill="none" stroke="#000000" stroke-linecap="round" stroke-width="1" /></g></svg>