<svg baseProfile="full" height="100%" version="1.1" viewBox="430,40,140,35" width="100%" xmlns="http://www.w3.org/2000/svg" xmlns:ev="http://www.w3.org/2001/xml-events" xmlns:xlink="http://www.w3.org/1999/xlink">
<defs><clipPath id="clip-path"><rect height="120" width="1000" x="0" y="0" /></clipPath></defs><g clip-path="url(#clip-path)"><rect fill="white" height="120" width="1000" x="0" y="0" /><path d="M0,0 M458.3794250488281,69.26233673095703 L458.4005432128906,69.23744201660156 L458.43524169921875,69.2061767578125 L458.4732666015625,69.17864990234375 M482.70220947265625,49.59477233886719 L482.5673828125,49.666587829589844 L482.3463134765625,49.95015335083008 L482.0470886230469,50.614479064941406 L481.66461181640625,51.7670783996582 L481.1480712890625,53.4273681640625 L480.4447326660156,55.51985549926758 L479.5367126464844,57.93646240234375 L478.4767150878906,60.538673400878906 L477.34246826171875,63.18564987182617 L476.23291015625,65.66213989257812 L475.2483215332031,67.77670288085938 L474.4969482421875,69.29557800292969 L474.0410461425781,70.08438110351562 L473.8992004394531,70.16081237792969 L473.9451904296875,69.85762023925781 L474.0564270019531,69.4792251586914 M479.62152099609375,49.722930908203125 L479.7215576171875,49.29875183105469 L479.9129638671875,48.842533111572266 L480.18115234375,48.63325500488281 L480.4660949707031,49.00239562988281 L480.71795654296875,50.048675537109375 L480.8883056640625,51.75054168701172 L480.9611511230469,53.97684860229492 L480.9895935058594,56.59064865112305 L481.0514831542969,59.356353759765625 L481.24542236328125,62.010799407958984 L481.6253356933594,64.31746673583984 L482.1600646972656,66.1022720336914 L482.7579650878906,67.29322052001953 L483.3237609863281,67.88771057128906 L483.8223876953125,67.86701202392578 L484.33026123046875,67.19267272949219 L484.9392395019531,65.80979919433594 L485.7196960449219,63.75648498535156 L486.68145751953125,61.20464324951172 L487.77545166015625,58.39029312133789 L488.9381103515625,55.542945861816406 L490.1172790527344,52.8485221862793 L491.2374267578125,50.41953659057617 L492.232666015625,48.362884521484375 L493.0498046875,46.79093551635742 L493.6676330566406,45.750244140625 L494.0600280761719,45.19886016845703 L494.26007080078125,45.0 M498.3414001464844,62.14259338378906 L498.342529296875,61.68819046020508 L498.30792236328125,60.95802688598633 L498.1870422363281,60.07237243652344 L497.90875244140625,59.27022171020508 L497.43109130859375,58.6917839050293 L496.6965026855469,58.451900482177734 L495.6959533691406,58.637115478515625 L494.5050354003906,59.33479690551758 L493.2469177246094,60.552574157714844 L492.09600830078125,62.202152252197266 L491.250732421875,64.08950805664062 L490.8407287597656,65.95155334472656 L490.95623779296875,67.53347778320312 L491.6133117675781,68.63275146484375 L492.7489929199219,69.12538146972656 L494.2608947753906,68.96392822265625 L495.9916076660156,68.16268920898438 L497.7569274902344,66.82296752929688 L499.3658447265625,65.11737060546875 L500.65216064453125,63.26387023925781 L501.49041748046875,61.49739456176758 L501.8497314453125,59.99824523925781 L501.811767578125,58.8729248046875 L501.5367736816406,58.14170837402344 L501.20465087890625,57.762237548828125 L500.98779296875,57.65715408325195 L500.9974670410156,57.75080490112305 L501.3041076660156,57.949825286865234 L501.99798583984375,58.16131591796875 L503.1098327636719,58.26959228515625 L504.6010437011719,58.18962097167969 L506.3565979003906,57.90760803222656 L508.19903564453125,57.5096549987793 L509.9056396484375,57.104644775390625 L511.30426025390625,56.76763153076172 L512.2816162109375,56.56221008300781 L512.783203125,56.539390563964844 L512.8104248046875,56.78388214111328 L512.4155883789062,57.427982330322266 L511.65283203125,58.5680046081543 L510.61822509765625,60.17237091064453 L509.4690856933594,62.152469635009766 L508.3970031738281,64.30953216552734 L507.5904541015625,66.40652465820312 L507.1937255859375,68.21937561035156 L507.27557373046875,69.58116149902344 L507.8399963378906,70.38082122802734 L508.85028076171875,70.59212493896484 L510.2392883300781,70.2186050415039 L511.90289306640625,69.31124114990234 L513.6924438476562,67.95034790039062 L515.44482421875,66.26432037353516 L517.0067749023438,64.41209411621094 L518.2710571289062,62.550838470458984 L519.17431640625,60.813358306884766 L519.7206420898438,59.31742477416992 L519.9539794921875,58.13429641723633 L519.9637451171875,57.29200744628906 L519.8414306640625,56.76894760131836 L519.688720703125,56.55177688598633 L519.5791015625,56.62858581542969 L519.5961303710938,56.99583053588867 L519.8148193359375,57.60969543457031 L520.3447875976562,58.34724426269531 L521.266357421875,58.99886703491211 L522.6477661132812,59.40971374511719 L524.4918823242188,59.49884033203125 L526.7281494140625,59.269195556640625 L529.2114868164062,58.81060028076172 L531.7979125976562,58.23780822753906 L534.3009033203125,57.648895263671875 L536.5171508789062,57.1556396484375 L538.2703857421875,56.83186721801758 L539.4580688476562,56.67426300048828 L540.0758666992188,56.64846420288086 L540.239990234375,56.700950622558594 L540.0523071289062,56.79887771606445 L539.5209350585938,56.9613151550293 L538.6099853515625,57.2348518371582 L537.2970581054688,57.66664123535156 L535.6171264648438,58.30442428588867 L533.70654296875,59.19767379760742 L531.7307739257812,60.36838150024414 L529.8500366210938,61.79951095581055 L528.236572265625,63.4062614440918 L527.0445556640625,65.02664184570312 L526.38037109375,66.47566223144531 L526.3074340820312,67.60042572021484 L526.8069458007812,68.26924896240234 L527.81103515625,68.41129302978516 L529.2345581054688,68.01103210449219 L530.981201171875,67.08456420898438 L532.9248657226562,65.72428894042969 L534.9404296875,64.07968139648438 L536.8818969726562,62.3220100402832 L538.5950927734375,60.65049362182617 L539.9569091796875,59.24979782104492 L540.9096069335938,58.19889450073242 L541.4511108398438,57.542667388916016 L541.6205444335938,57.30674743652344 L541.4757080078125,57.53481674194336 L541.0478515625,58.28952407836914 L540.3945922851562,59.593841552734375 L539.6617431640625,61.300743103027344 L539.0672607421875,63.18663024902344 L539.0099487304688,65.05549621582031 L539.3424072265625,66.49982452392578 L539.8196411132812,67.3726806640625 " fill="none" stroke="#000000" stroke-linecap="round" stroke-width="1" /></g></svg>