<svg baseProfile="full" height="100%" version="1.1" viewBox="430,40,140,35" width="100%" xmlns="http://www.w3.org/2000/svg" xmlns:ev="http://www.w3.org/2001/xml-events" xmlns:xlink="http://www.w3.org/1999/xlink"><defs><clipPath id="clip-path"><rect height="120" width="1000" x="0" y="0" /></clipPath></defs><g clip-path="url(#clip-path)"><rect fill="white" height="120" width="1000" x="0" y="0" /><path d="M0,0 M471.253662109375,50.4598503112793 L471.2811279296875,51.02562713623047 L471.329833984375,52.16586685180664 L471.37823486328125,53.90779113769531 L471.3823547363281,56.0921745300293 L471.3026428222656,58.549617767333984 L471.1458740234375,61.083702087402344 L470.9471435546875,63.52775192260742 L470.7686767578125,65.69099426269531 L470.6515197753906,67.38836669921875 L470.5996398925781,68.5190658569336 L470.5892333984375,69.10504913330078 L470.59490966796875,69.30091094970703 M463.8629455566406,49.96595001220703 L464.1607666015625,49.36683654785156 L464.8651123046875,48.46623229980469 L466.07037353515625,47.43759536743164 L467.748046875,46.563167572021484 L469.82574462890625,45.91526794433594 L472.1518249511719,45.54553985595703 L474.5775451660156,45.45564270019531 L476.94964599609375,45.688987731933594 L479.0683288574219,46.245277404785156 L480.7630310058594,47.085479736328125 L481.9073791503906,48.15222930908203 L482.409912109375,49.38230514526367 L482.2765197753906,50.71265411376953 L481.5505676269531,52.0997428894043 L480.2860412597656,53.480064392089844 L478.5929260253906,54.78861999511719 L476.6157531738281,55.96448516845703 L474.56646728515625,56.95799255371094 L472.71771240234375,57.74299240112305 L471.34625244140625,58.28445053100586 L470.6207275390625,58.565406799316406 L470.55224609375,58.60121154785156 L470.8353576660156,58.50276565551758 L471.1737976074219,58.37736892700195 M484.9320068359375,57.60466003417969 L484.98455810546875,57.92546081542969 L485.0757751464844,58.567386627197266 L485.180419921875,59.53572082519531 L485.25543212890625,60.710777282714844 L485.2906799316406,61.980865478515625 L485.2743835449219,63.21044921875 L485.24432373046875,64.31462097167969 L485.2398376464844,65.1548843383789 L485.272216796875,65.61833190917969 L485.33905029296875,65.6483154296875 L485.41485595703125,65.43096160888672 L485.46478271484375,65.15664672851562 M486.6614990234375,47.73046112060547 L486.7228088378906,47.65546417236328 L486.83050537109375,47.592674255371094 L486.96307373046875,47.57541275024414 L487.09051513671875,47.649417877197266 L487.1839599609375,47.79103469848633 L487.261474609375,48.00532531738281 L487.32171630859375,48.21682357788086 L487.3646240234375,48.37824249267578 M497.4493713378906,54.95977020263672 L497.3226318359375,55.21928787231445 L497.0570373535156,55.77014923095703 L496.6158142089844,56.652626037597656 L495.9929504394531,57.80710220336914 L495.1772155761719,59.16370391845703 L494.1916198730469,60.632476806640625 L493.1173095703125,62.119483947753906 L492.0707702636719,63.474857330322266 L491.177001953125,64.52951049804688 L490.5274963378906,65.14939880371094 L490.1490173339844,65.38475799560547 L489.9849853515625,65.38253784179688 M491.6391906738281,56.267784118652344 L491.6872863769531,56.2374153137207 L491.8975524902344,56.3151741027832 L492.3636169433594,56.617401123046875 L493.12493896484375,57.220550537109375 L494.14471435546875,58.09088897705078 L495.3692321777344,59.1387939453125 L496.7160339355469,60.2556037902832 L498.1761169433594,61.35042953491211 L499.6954040527344,62.35096740722656 L501.1971740722656,63.195159912109375 L502.3874206542969,63.784576416015625 L503.12640380859375,64.10564422607422 M506.73687744140625,62.493629455566406 L506.9839172363281,62.387664794921875 L507.5293884277344,62.11045455932617 L508.4168395996094,61.586997985839844 L509.5817565917969,60.79994583129883 L510.90625,59.7653694152832 L512.2390747070312,58.55140686035156 L513.4200439453125,57.254905700683594 L514.3417358398438,55.98617935180664 L514.9160766601562,54.837833404541016 L515.1024780273438,53.9010009765625 L514.872314453125,53.2340202331543 L514.2326049804688,52.918663024902344 L513.19378662109375,53.0355339050293 L511.84320068359375,53.66732406616211 L510.3313293457031,54.81989288330078 L508.86895751953125,56.41249084472656 L507.6873474121094,58.26252365112305 L506.9937744140625,60.16400146484375 L506.8932189941406,61.90496826171875 L507.4204406738281,63.34034729003906 L508.5428466796875,64.34911346435547 L510.1731262207031,64.85924530029297 L512.2120361328125,64.83757019042969 L514.5164794921875,64.30244445800781 L516.9213256835938,63.30278778076172 L519.2494506835938,61.92539978027344 L521.3577270507812,60.25263977050781 L523.1572875976562,58.378021240234375 L524.624755859375,56.38587188720703 L525.74755859375,54.352054595947266 L526.5586547851562,52.346370697021484 L527.0735473632812,50.44471740722656 L527.3280639648438,48.73526382446289 L527.3810424804688,47.30110549926758 L527.3064575195312,46.18413543701172 L527.1393432617188,45.40987014770508 L526.9175415039062,45.003021240234375 L526.6154174804688,45.0 L526.21044921875,45.45838928222656 L525.7022705078125,46.40787124633789 L525.1332397460938,47.80223846435547 L524.54052734375,49.54988098144531 L524.0054931640625,51.53668212890625 L523.5748901367188,53.6353645324707 L523.3240356445312,55.73035430908203 L523.3326416015625,57.72102737426758 L523.6631469726562,59.49934768676758 L524.3566284179688,60.97911834716797 L525.4470825195312,62.09600067138672 L526.908447265625,62.81190872192383 L528.6940307617188,63.1284294128418 L530.7440185546875,63.06037521362305 L532.984375,62.622528076171875 L534.8789672851562,62.08323287963867 L536.1370849609375,61.6385612487793 " fill="none" stroke="#000000" stroke-linecap="round" stroke-width="1" /></g></svg>