<svg baseProfile="full" height="100%" version="1.1" viewBox="430,40,140,35" width="100%" xmlns="http://www.w3.org/2000/svg" xmlns:ev="http://www.w3.org/2001/xml-events" xmlns:xlink="http://www.w3.org/1999/xlink">
<defs><clipPath id="clip-path"><rect height="120" width="1000" x="0" y="0" /></clipPath></defs><g clip-path="url(#clip-path)"><rect fill="white" height="120" width="1000" x="0" y="0" /><path d="M0,0 M462.7148132324219,51.11396026611328 L462.646240234375,51.01002502441406 L462.6107482910156,50.93976593017578 L462.66845703125,51.09836196899414 L462.8718566894531,51.76319122314453 L463.1965637207031,53.14257049560547 L463.5771789550781,55.24808883666992 L463.9364013671875,57.89160919189453 L464.25372314453125,60.765663146972656 L464.5229797363281,63.54003143310547 L464.769287109375,65.96846008300781 L465.0042724609375,67.88449096679688 L465.2032775878906,69.20762634277344 L465.3309020996094,69.95964050292969 L465.37518310546875,70.26005554199219 L465.3543701171875,70.29237365722656 L465.3135070800781,70.22650146484375 L465.2814025878906,70.14717864990234 L465.26214599609375,70.07917785644531 L465.2447509765625,70.00053405761719 L465.21923828125,69.89427947998047 L465.1937561035156,69.76660919189453 L465.1775207519531,69.65339660644531 L465.17132568359375,69.5752944946289 M461.1217956542969,52.62749099731445 L461.2781066894531,51.800437927246094 L461.6902770996094,50.522064208984375 L462.4539794921875,49.00050735473633 L463.5826110839844,47.605308532714844 L465.015625,46.460914611816406 L466.64410400390625,45.63563919067383 L468.33966064453125,45.13360595703125 L469.99462890625,45.0 L471.5265808105469,45.22407150268555 L472.8629150390625,45.75502014160156 L473.94598388671875,46.551124572753906 L474.6952819824219,47.56086349487305 L474.992431640625,48.74231719970703 L474.7471008300781,50.059654235839844 L473.90203857421875,51.45951843261719 L472.4931335449219,52.86296081542969 L470.68017578125,54.18944549560547 L468.69439697265625,55.369056701660156 L466.7638854980469,56.32987594604492 L465.1333312988281,57.03718185424805 L463.940185546875,57.48268508911133 L463.22412109375,57.695552825927734 L462.9276428222656,57.73506546020508 L462.9377136230469,57.695491790771484 L463.13848876953125,57.62617492675781 L463.54345703125,57.58906555175781 L464.2055358886719,57.63368606567383 L465.17529296875,57.81683349609375 L466.43865966796875,58.201541900634766 L467.89947509765625,58.8590202331543 L469.4356384277344,59.80910110473633 L470.9597473144531,61.03595733642578 L472.42529296875,62.47800827026367 L473.8045959472656,64.02559661865234 L475.084716796875,65.55540466308594 L476.2419738769531,66.94413757324219 L477.2516784667969,68.07835388183594 L478.0833740234375,68.88941955566406 L478.659912109375,69.36355590820312 L478.9733581542969,69.5665283203125 M480.2660217285156,66.3387680053711 L480.4532165527344,66.28829193115234 L480.9170227050781,66.0980224609375 L481.71624755859375,65.68563842773438 L482.7980041503906,64.99890899658203 L484.034423828125,64.05213928222656 L485.2493896484375,62.89739990234375 L486.30615234375,61.61442565917969 L487.11309814453125,60.29490280151367 L487.59210205078125,59.039512634277344 L487.69903564453125,57.93925857543945 L487.4154052734375,57.07676696777344 L486.7236022949219,56.52005386352539 L485.66094970703125,56.343017578125 L484.3158264160156,56.612335205078125 L482.8318786621094,57.37157440185547 L481.4111633300781,58.61109161376953 L480.28082275390625,60.2375373840332 L479.6164855957031,62.0916748046875 L479.50653076171875,63.98767852783203 L480.03875732421875,65.70365905761719 L481.1778869628906,67.04925537109375 L482.7643127441406,67.9188461303711 L484.252685546875,68.34381866455078 L485.2846374511719,68.46412658691406 M492.1534118652344,57.76100540161133 L492.15802001953125,57.657291412353516 L492.191650390625,57.59709930419922 L492.2859802246094,57.75273895263672 L492.461181640625,58.33046340942383 L492.73089599609375,59.43096160888672 L493.0771789550781,60.978939056396484 L493.4813232421875,62.74507141113281 L493.93585205078125,64.45987701416016 L494.42919921875,65.88823699951172 L494.9280700683594,66.93232727050781 L495.39886474609375,67.5926742553711 L495.80010986328125,67.86470031738281 L496.1492004394531,67.7105712890625 L496.5064392089844,67.04711151123047 L496.9533996582031,65.82205200195312 L497.5495910644531,64.13748168945312 L498.3067932128906,62.21305465698242 L499.1861877441406,60.29576873779297 L500.1455993652344,58.600643157958984 L501.1526794433594,57.26171112060547 L502.16094970703125,56.3318977355957 L503.11932373046875,55.81022644042969 L503.85546875,55.60435485839844 L504.29571533203125,55.5770149230957 M507.7505798339844,58.06200408935547 L507.806396484375,58.044742584228516 L507.882080078125,58.02032470703125 L507.976318359375,58.07692337036133 L508.0735168457031,58.356956481933594 L508.1836853027344,59.01879119873047 L508.317626953125,60.12342834472656 L508.470947265625,61.564064025878906 L508.62567138671875,63.133460998535156 L508.7964172363281,64.62852478027344 L508.9666442871094,65.88351440429688 L509.1376647949219,66.85601806640625 L509.2915344238281,67.45933532714844 L509.39910888671875,67.62908172607422 L509.4385070800781,67.34059143066406 L509.43682861328125,66.85661315917969 L509.4100341796875,66.4045181274414 M507.1623840332031,48.680747985839844 L507.1717529296875,48.5056037902832 L507.2218933105469,48.32480239868164 L507.2915344238281,48.192867279052734 L507.359375,48.16432189941406 M513.1912841796875,55.313140869140625 L513.2630615234375,55.35404968261719 L513.4193725585938,55.578155517578125 L513.661376953125,56.12434768676758 L513.9542236328125,57.08161544799805 L514.2737426757812,58.42097473144531 L514.5917358398438,60.03151321411133 L514.9217529296875,61.74654769897461 L515.2914428710938,63.40058517456055 L515.7064819335938,64.8363037109375 L516.1332397460938,65.94306182861328 L516.5186157226562,66.68986511230469 L516.8045043945312,67.10212707519531 L516.97607421875,67.20877838134766 L517.075439453125,66.99757385253906 L517.1876831054688,66.37223052978516 L517.4097900390625,65.24302673339844 L517.8026733398438,63.64405822753906 L518.392578125,61.74033737182617 L519.1451416015625,59.76960372924805 L520.022216796875,57.96587371826172 L520.9586181640625,56.486915588378906 L521.896484375,55.390926361083984 L522.6387329101562,54.71571350097656 L523.1014404296875,54.395042419433594 M531.0872192382812,57.13310241699219 L530.99267578125,56.91840744018555 L530.792236328125,56.5805549621582 L530.3968505859375,56.21196365356445 L529.7025146484375,56.00038146972656 L528.6085815429688,56.118228912353516 L527.1370849609375,56.72260665893555 L525.448974609375,57.86796569824219 L523.8597412109375,59.469383239746094 L522.6595458984375,61.30766677856445 L522.0396118164062,63.097660064697266 L522.034423828125,64.59754943847656 L522.552001953125,65.66694641113281 L523.44873046875,66.24944305419922 L524.61962890625,66.33361053466797 L525.9654541015625,65.91607666015625 L527.4014282226562,65.0064468383789 L528.8160400390625,63.66326141357422 L530.0662231445312,62.039119720458984 L531.0257568359375,60.38399887084961 L531.6345825195312,58.96214294433594 L531.9229125976562,57.9390754699707 L531.9932250976562,57.385223388671875 L531.980712890625,57.29023361206055 L531.9834594726562,57.651554107666016 L532.0612182617188,58.49888229370117 L532.2184448242188,59.79571533203125 L532.4627685546875,61.35775375366211 L532.8023681640625,62.9503288269043 L533.2371826171875,64.33789825439453 L533.7404174804688,65.38957214355469 L534.1820678710938,66.04594421386719 L534.4708862304688,66.37071990966797 M537.3484497070312,46.56353759765625 L537.4103393554688,46.51326370239258 L537.5367431640625,46.61659240722656 L537.7037963867188,47.056434631347656 L537.8572998046875,48.00541687011719 L537.9508056640625,49.4671630859375 L537.9693603515625,51.335105895996094 L537.9380493164062,53.41819763183594 L537.9180297851562,55.5245475769043 L537.9548950195312,57.50398254394531 L538.06103515625,59.27591323852539 L538.2354736328125,60.78915786743164 L538.443603515625,62.005279541015625 L538.643310546875,62.88506317138672 L538.792236328125,63.4100227355957 L538.878173828125,63.64411544799805 " fill="none" stroke="#000000" stroke-linecap="round" stroke-width="1" /></g></svg>