<svg baseProfile="full" height="100%" version="1.1" viewBox="430,40,140,35" width="100%" xmlns="http://www.w3.org/2000/svg" xmlns:ev="http://www.w3.org/2001/xml-events" xmlns:xlink="http://www.w3.org/1999/xlink"><defs><clipPath id="clip-path"><rect height="120" width="1000" x="0" y="0" /></clipPath></defs><g clip-path="url(#clip-path)"><rect fill="white" height="120" width="1000" x="0" y="0" /><path d="M0,0 M451.4989929199219,48.157203674316406 L451.4375305175781,47.7283821105957 L451.207763671875,47.09465026855469 L450.687744140625,46.37644577026367 L449.78765869140625,45.77447509765625 L448.4908447265625,45.32954788208008 L446.83734130859375,45.07152557373047 L444.9026184082031,45.0 L442.82952880859375,45.17007827758789 L440.75433349609375,45.608341217041016 L438.8326416015625,46.329288482666016 L437.2282409667969,47.307647705078125 L436.0875549316406,48.50358200073242 L435.5328369140625,49.85676574707031 L435.6852722167969,51.32435607910156 L436.59820556640625,52.8674430847168 L438.2647705078125,54.463043212890625 L440.5996398925781,56.1005859375 L443.4222106933594,57.78254318237305 L446.46820068359375,59.50424575805664 L449.4559326171875,61.24459457397461 L452.10125732421875,62.960533142089844 L454.18524169921875,64.58297729492188 L455.5686340332031,66.05765533447266 L456.1986999511719,67.34493255615234 L456.0785827636719,68.4371566772461 L455.2647399902344,69.33423614501953 L453.8190002441406,70.04496765136719 L451.8443908691406,70.56373596191406 L449.4458923339844,70.88692474365234 L446.7751770019531,71.01553344726562 L443.9962463378906,70.9753646850586 L441.2819519042969,70.78812408447266 L438.7887878417969,70.49047088623047 L436.6796875,70.13214874267578 L435.03729248046875,69.75325775146484 L434.0269470214844,69.39752197265625 L433.7292175292969,69.10638427734375 L434.1325378417969,68.88825988769531 L434.82830810546875,68.7513427734375 L435.4658508300781,68.68783569335938 M468.7144775390625,64.99765014648438 L468.66363525390625,64.50825500488281 L468.484619140625,63.727882385253906 L468.1056823730469,62.778621673583984 L467.4687194824219,61.87723159790039 L466.5506286621094,61.102787017822266 L465.37042236328125,60.516048431396484 L463.9632568359375,60.165748596191406 L462.3904113769531,60.101585388183594 L460.7598876953125,60.372379302978516 L459.192626953125,60.9919548034668 L457.8309326171875,61.94056701660156 L456.8116455078125,63.155452728271484 L456.2385559082031,64.55128479003906 L456.1867980957031,65.98468780517578 L456.7056884765625,67.30979919433594 L457.7889099121094,68.39496612548828 L459.3869934082031,69.12969970703125 L461.3901062011719,69.46062469482422 L463.6277770996094,69.36585235595703 L465.90301513671875,68.8622055053711 L468.0384216308594,68.00582885742188 L469.8654479980469,66.87611389160156 L471.28399658203125,65.58053588867188 L472.2648010253906,64.26471710205078 L472.84124755859375,63.06585693359375 L473.09368896484375,62.102108001708984 L473.14141845703125,61.460174560546875 L473.0614318847656,61.17197036743164 L472.9266662597656,61.252159118652344 L472.7915344238281,61.710960388183594 L472.7136535644531,62.53971481323242 L472.7353820800781,63.66286087036133 L472.90533447265625,64.97230529785156 L473.20733642578125,66.31404113769531 L473.6025695800781,67.54680633544922 L474.0379333496094,68.56234741210938 L474.4527587890625,69.2967758178711 L474.79833984375,69.7281723022461 L475.0393981933594,69.9192123413086 L475.1668395996094,69.96049499511719 M477.66741943359375,59.715675354003906 L477.7449951171875,59.68528747558594 L477.8892822265625,59.77108383178711 L478.0759582519531,60.098854064941406 L478.25054931640625,60.771793365478516 L478.345703125,61.78657913208008 L478.3121643066406,63.050025939941406 L478.1518249511719,64.43490600585938 L477.89239501953125,65.78903198242188 L477.5809020996094,66.9718017578125 L477.27679443359375,67.87177276611328 L477.0092468261719,68.40512084960938 L476.7947998046875,68.51065063476562 L476.66888427734375,68.1839599609375 L476.6648864746094,67.4403076171875 L476.829345703125,66.35961151123047 L477.192626953125,65.04734802246094 L477.7616271972656,63.61167907714844 L478.5309143066406,62.15492248535156 L479.4939880371094,60.767242431640625 L480.6351013183594,59.52598190307617 L481.9387817382812,58.53224182128906 L483.3511047363281,57.86912536621094 L484.8005065917969,57.59560012817383 L486.2154846191406,57.74359893798828 L487.5304260253906,58.30461120605469 L488.6932067871094,59.23958969116211 L489.6554870605469,60.48794937133789 L490.3631591796875,61.96059036254883 L490.801513671875,63.542449951171875 L491.00225830078125,65.1199951171875 L491.0237121582031,66.58924102783203 L490.9780578613281,67.84744262695312 L490.9544677734375,68.81590270996094 L490.9986572265625,69.45816040039062 L491.0865783691406,69.79431915283203 L491.1761474609375,69.91325378417969 M505.83734130859375,60.30818557739258 L505.76080322265625,59.76066207885742 L505.46728515625,58.943687438964844 L504.8211364746094,58.03790283203125 L503.73333740234375,57.32392501831055 L502.21624755859375,56.87701416015625 L500.3722839355469,56.71945571899414 L498.4339599609375,56.814491271972656 L496.66168212890625,57.14337158203125 L495.32891845703125,57.690330505371094 L494.6269226074219,58.42803192138672 L494.632080078125,59.31480026245117 L495.33282470703125,60.30109405517578 L496.677978515625,61.330665588378906 L498.5480041503906,62.35598373413086 L500.797607421875,63.367835998535156 L503.2185363769531,64.36336517333984 L505.55865478515625,65.33219146728516 L507.5838928222656,66.2399673461914 L509.1182861328125,67.02913665771484 L510.0562438964844,67.64820098876953 L510.393310546875,68.09681701660156 L510.1654968261719,68.39264678955078 L509.42694091796875,68.58164978027344 L508.2314758300781,68.70095825195312 L506.64947509765625,68.7697982788086 L504.77191162109375,68.80357360839844 L502.72601318359375,68.81771850585938 L500.6400146484375,68.80140686035156 L498.65789794921875,68.75411224365234 L496.8955078125,68.66590881347656 L495.4405822753906,68.53343200683594 L494.4384460449219,68.35152435302734 L493.983154296875,68.12489318847656 L494.0948486328125,67.85945129394531 L494.4996337890625,67.6281967163086 L494.92193603515625,67.472412109375 M523.9519653320312,61.17660903930664 L523.8756713867188,60.757080078125 L523.62890625,60.11566162109375 L523.113037109375,59.371334075927734 L522.254638671875,58.73483657836914 L521.0379028320312,58.29107666015625 L519.52001953125,58.08999252319336 L517.8292846679688,58.15312957763672 L516.1156616210938,58.53529739379883 L514.53564453125,59.23651885986328 L513.20849609375,60.224456787109375 L512.229248046875,61.423397064208984 L511.669189453125,62.72893524169922 L511.59893798828125,64.02288055419922 L512.0565185546875,65.20250701904297 L513.0443725585938,66.15583038330078 L514.5108642578125,66.79322052001953 L516.352783203125,67.04747772216797 L518.4072875976562,66.89067840576172 L520.501220703125,66.32987213134766 L522.458740234375,65.42097473144531 L524.1417846679688,64.2605972290039 L525.4335327148438,62.96110916137695 L526.2767944335938,61.65751647949219 L526.678955078125,60.487369537353516 L526.7249145507812,59.566566467285156 L526.5349731445312,58.96794509887695 L526.25244140625,58.73714828491211 L525.9668579101562,58.87769317626953 L525.748779296875,59.38454055786133 L525.649169921875,60.233673095703125 L525.7161254882812,61.36394119262695 L525.9784545898438,62.665321350097656 L526.4579467773438,64.0109634399414 L527.1558837890625,65.28107452392578 L528.0449829101562,66.38141632080078 L529.0763549804688,67.21935272216797 L530.1571044921875,67.73680877685547 L531.1737670898438,67.92555236816406 L531.930908203125,67.90033721923828 L532.3677368164062,67.79708862304688 M533.9978637695312,60.357242584228516 L534.00927734375,60.3114013671875 L534.0081176757812,60.37900161743164 L533.970947265625,60.681949615478516 L533.8678588867188,61.31650161743164 L533.720703125,62.257137298583984 L533.5331420898438,63.36235427856445 L533.328125,64.46713256835938 L533.1328125,65.42717742919922 L532.9451293945312,66.09849548339844 L532.7534790039062,66.37930297851562 L532.6015625,66.20433044433594 L532.5101928710938,65.54359436035156 L532.5264892578125,64.44807434082031 L532.6944580078125,63.044654846191406 L533.0220947265625,61.477603912353516 L533.517822265625,59.88719940185547 L534.2266845703125,58.393062591552734 L535.1809692382812,57.0897331237793 L536.3966064453125,56.0418815612793 L537.8704223632812,55.319332122802734 L539.541748046875,54.956417083740234 L541.331298828125,54.94839859008789 L543.1536865234375,55.256683349609375 L544.9453125,55.812198638916016 L546.6093139648438,56.493370056152344 L548.0711669921875,57.186256408691406 L549.1268920898438,57.722171783447266 L549.7267456054688,58.03446578979492 M557.3432006835938,60.786468505859375 L557.25830078125,60.42314147949219 L557.0406494140625,59.82661437988281 L556.61041259765625,59.09586715698242 L555.897705078125,58.430763244628906 L554.8587646484375,57.948585510253906 L553.489501953125,57.73622512817383 L551.85986328125,57.83513259887695 L550.10302734375,58.26119613647461 L548.3916015625,59.00587463378906 L546.9160766601562,60.02054214477539 L545.8665771484375,61.21556091308594 L545.3812255859375,62.469032287597656 L545.55615234375,63.64615249633789 L546.4005737304688,64.61117553710938 L547.8446044921875,65.2603988647461 L549.7490234375,65.53231048583984 L551.9240112304688,65.40930938720703 L554.1599731445312,64.91255187988281 L556.2745971679688,64.0926284790039 L558.1130981445312,63.01896667480469 L559.581298828125,61.79037857055664 L560.6256103515625,60.51020050048828 L561.2540283203125,59.303367614746094 L561.5335693359375,58.26797103881836 L561.5731811523438,57.47419738769531 L561.4866943359375,56.975521087646484 L561.3718872070312,56.82362747192383 L561.2727661132812,57.04463577270508 L561.2086181640625,57.668819427490234 L561.1957397460938,58.662635803222656 L561.24267578125,59.92070770263672 L561.3771362304688,61.31930160522461 L561.6375732421875,62.74424743652344 L562.0858764648438,64.11381530761719 L562.7327880859375,65.3855209350586 L563.6005249023438,66.52123260498047 L564.6630249023438,67.46031951904297 L565.61669921875,68.10409545898438 L566.270751953125,68.44758605957031 " fill="none" stroke="#000000" stroke-linecap="round" stroke-width="1" /></g></svg>