<svg baseProfile="full" height="100%" version="1.1" viewBox="430,40,140,35" width="100%" xmlns="http://www.w3.org/2000/svg" xmlns:ev="http://www.w3.org/2001/xml-events" xmlns:xlink="http://www.w3.org/1999/xlink">
<defs><clipPath id="clip-path"><rect height="120" width="1000" x="0" y="0" /></clipPath></defs><g clip-path="url(#clip-path)"><rect fill="white" height="120" width="1000" x="0" y="0" /><path d="M0,0 M451.49871826171875,45.0 L450.58453369140625,45.15025329589844 L449.155029296875,45.41671371459961 L447.4595947265625,45.79632568359375 L445.9379577636719,46.25063705444336 L444.74700927734375,46.78218460083008 L443.98260498046875,47.37911605834961 L443.6540832519531,48.0412712097168 L443.81744384765625,48.7767448425293 L444.5072021484375,49.583065032958984 L445.73687744140625,50.45117950439453 L447.4774475097656,51.38019943237305 L449.616455078125,52.339691162109375 L451.97674560546875,53.3291015625 L454.34033203125,54.369964599609375 L456.4803771972656,55.45372009277344 L458.2167663574219,56.558834075927734 L459.43182373046875,57.66971206665039 L460.0433654785156,58.755462646484375 L459.99591064453125,59.801666259765625 L459.2565612792969,60.786048889160156 L457.8435974121094,61.651939392089844 L455.82183837890625,62.319862365722656 L453.3262023925781,62.726348876953125 L450.5239562988281,62.83837127685547 L447.5675964355469,62.63428497314453 L444.6111755371094,62.12605285644531 L441.8334655761719,61.367225646972656 L439.46881103515625,60.37244415283203 L437.733154296875,59.20884323120117 L436.74993896484375,57.97468566894531 L436.37994384765625,56.95256042480469 L436.3658752441406,56.29655838012695 M466.3745422363281,49.84406280517578 L466.2801513671875,50.741722106933594 L466.14715576171875,52.16759490966797 L466.0079040527344,53.936683654785156 L465.9072265625,55.67094421386719 L465.8494873046875,57.25642776489258 L465.82830810546875,58.62176513671875 L465.82354736328125,59.742103576660156 L465.8195495605469,60.52950668334961 L465.8124084472656,60.94529724121094 L465.8056945800781,60.95293045043945 L465.82537841796875,60.55234909057617 L465.91937255859375,59.783668518066406 L466.1478576660156,58.7286376953125 L466.5704345703125,57.501190185546875 L467.2591552734375,56.24236297607422 L468.249755859375,55.06660079956055 L469.55914306640625,54.072208404541016 L471.1595764160156,53.32870864868164 L472.9897766113281,52.88015365600586 L474.96051025390625,52.7536735534668 L476.985107421875,52.96000671386719 L478.9560852050781,53.480220794677734 L480.7991943359375,54.279598236083984 L482.4289245605469,55.30217742919922 L483.7876892089844,56.4592399597168 L484.85205078125,57.65648651123047 L485.6415100097656,58.79899597167969 L486.22900390625,59.77699661254883 L486.72296142578125,60.50651931762695 L487.1930847167969,60.943721771240234 L487.58282470703125,61.12931442260742 L487.8464050292969,61.159423828125 M498.0137634277344,51.7716064453125 L497.4366760253906,51.51815414428711 L496.3897705078125,51.251487731933594 L494.9288330078125,51.117523193359375 L493.2781677246094,51.277584075927734 L491.6037292480469,51.7348518371582 L490.03533935546875,52.44050216674805 L488.6871337890625,53.34989929199219 L487.6458435058594,54.43666458129883 L486.9857177734375,55.63616943359375 L486.75054931640625,56.86335372924805 L486.96893310546875,58.014808654785156 L487.5986633300781,58.96107864379883 L488.58465576171875,59.61921691894531 L489.8358459472656,59.92490005493164 L491.25421142578125,59.85255813598633 L492.7187194824219,59.40849685668945 L494.1164245605469,58.6402473449707 L495.323974609375,57.61052322387695 L496.2711486816406,56.45874786376953 L496.951904296875,55.347103118896484 L497.3946228027344,54.43287658691406 L497.6494140625,53.8291130065918 L497.78704833984375,53.61531448364258 L497.8712463378906,53.7957763671875 L497.9798278808594,54.363792419433594 L498.193603515625,55.267024993896484 L498.547119140625,56.381103515625 L499.1590881347656,57.57123947143555 L500.0921936035156,58.70313262939453 L501.33770751953125,59.65175247192383 L502.5166320800781,60.300716400146484 L503.358642578125,60.649959564208984 M515.07666015625,53.50299072265625 L514.70556640625,53.0441780090332 L513.9967651367188,52.42171859741211 L512.9432373046875,51.818992614746094 L511.6442565917969,51.47966766357422 L510.1800231933594,51.445865631103516 L508.6484680175781,51.714385986328125 L507.1582336425781,52.248939514160156 L505.8375244140625,53.03752517700195 L504.8082580566406,54.052310943603516 L504.1743469238281,55.2170524597168 L504.0167236328125,56.44207763671875 L504.3452453613281,57.618080139160156 L505.1279296875,58.6501579284668 L506.3023376464844,59.45724868774414 L507.77081298828125,59.99884796142578 L509.43597412109375,60.23202133178711 L511.21337890625,60.13465118408203 L512.9923095703125,59.68256759643555 L514.673828125,58.90279769897461 L516.1973876953125,57.75463104248047 L517.4879760742188,56.280792236328125 L518.5015869140625,54.581817626953125 L519.1727294921875,53.109066009521484 L519.5189819335938,52.127838134765625 M518.7415771484375,45.72816467285156 L518.7217407226562,46.47737121582031 L518.6984252929688,47.732112884521484 L518.6873779296875,49.37396240234375 L518.7124633789062,51.114234924316406 L518.8126220703125,52.846923828125 L519.0245971679688,54.48367691040039 L519.3777465820312,55.98316955566406 L519.91650390625,57.24055862426758 L520.6383666992188,58.174034118652344 L521.49755859375,58.748287200927734 L522.259765625,59.013916015625 L522.7740478515625,59.08025360107422 M533.51904296875,50.14045333862305 L532.4940185546875,50.225948333740234 L530.925048828125,50.48722839355469 L529.1010131835938,51.00116729736328 L527.5206909179688,51.782527923583984 L526.3487548828125,52.7911491394043 L525.681396484375,53.94961166381836 L525.5488891601562,55.16768264770508 L525.9752197265625,56.33527755737305 L526.927734375,57.3544921875 L528.310791015625,58.12409210205078 L529.9786987304688,58.5802116394043 L531.7747802734375,58.67387771606445 L533.55517578125,58.391624450683594 L535.1552124023438,57.72774887084961 L536.450927734375,56.75572204589844 L537.3318481445312,55.569332122802734 L537.7576904296875,54.33171081542969 L537.7857055664062,53.19468307495117 L537.6181640625,52.3698616027832 L537.427490234375,51.905235290527344 M543.435302734375,52.37234115600586 L543.4534912109375,52.811771392822266 L543.4874877929688,53.55836868286133 L543.5452270507812,54.53603744506836 L543.6361083984375,55.55416488647461 L543.7710571289062,56.50395584106445 L543.95947265625,57.28363800048828 L544.18115234375,57.812808990478516 L544.4267578125,58.02782440185547 L544.6952514648438,57.89662551879883 L545.010986328125,57.442474365234375 L545.4057006835938,56.74494934082031 L545.9012451171875,55.93007278442383 L546.4988403320312,55.12734603881836 L547.1882934570312,54.473060607910156 L547.956298828125,54.0582160949707 L548.8038940429688,53.9311408996582 L549.7535400390625,54.1207160949707 L550.8253784179688,54.62364196777344 L552.0425415039062,55.38815689086914 L553.4014282226562,56.3287353515625 L554.8804321289062,57.31610870361328 L556.4243774414062,58.19887161254883 L557.984130859375,58.855430603027344 L559.4805297851562,59.18111038208008 L560.8452758789062,59.08888244628906 L562.0036010742188,58.52355194091797 L562.9025268554688,57.48504638671875 L563.4641723632812,55.995140075683594 L563.6340942382812,54.12133026123047 L563.5474243164062,52.42502975463867 L563.36572265625,51.24767303466797 " fill="none" stroke="#000000" stroke-linecap="round" stroke-width="1" /></g>
</svg>