<svg baseProfile="full" height="100%" version="1.1" viewBox="450,45,150,30" width="100%" xmlns="http://www.w3.org/2000/svg" xmlns:ev="http://www.w3.org/2001/xml-events" xmlns:xlink="http://www.w3.org/1999/xlink"><defs><clipPath id="clip-path"><rect height="120" width="1000" x="0" y="0" /></clipPath></defs><g clip-path="url(#clip-path)"><rect fill="white" height="120" width="1000" x="0" y="0" /><path d="M0,0 M472.75848388671875,49.96257400512695 L472.9945373535156,50.30084991455078 L473.4206848144531,50.98466110229492 L474.01763916015625,52.067726135253906 L474.7318115234375,53.52018737792969 L475.5621032714844,55.3366584777832 L476.475830078125,57.44412612915039 L477.435791015625,59.724361419677734 L478.3831787109375,62.003265380859375 L479.228515625,64.06461334228516 L479.94189453125,65.71227264404297 L480.534423828125,66.77360534667969 L481.0363464355469,67.10717010498047 L481.50079345703125,66.63922119140625 L481.9839172363281,65.37567901611328 L482.48992919921875,63.395057678222656 L483.0289611816406,60.87446212768555 L483.59063720703125,58.02259063720703 L484.1596984863281,55.067325592041016 L484.7224426269531,52.25148010253906 L485.2402648925781,49.77290344238281 L485.6535949707031,47.77166748046875 L485.9285583496094,46.31315612792969 L486.0634460449219,45.425052642822266 L486.100830078125,45.0 M488.7544860839844,57.007423400878906 L488.8440246582031,57.548606872558594 L489.0230712890625,58.518516540527344 L489.3006286621094,59.88067626953125 L489.6717224121094,61.427459716796875 L490.1175842285156,62.98175811767578 L490.57806396484375,64.32411193847656 L490.947265625,65.25342559814453 L491.17132568359375,65.72977447509766 M489.7939758300781,50.9023323059082 L489.820068359375,50.881813049316406 L489.9019470214844,50.885257720947266 L490.0068054199219,50.908226013183594 L490.10186767578125,50.94628143310547 M495.5152893066406,47.17021179199219 L495.5027770996094,47.47229766845703 L495.5271301269531,48.209510803222656 L495.6087646484375,49.50129318237305 L495.7608642578125,51.31714630126953 L495.9742126464844,53.52228546142578 L496.2507019042969,55.89009094238281 L496.6122131347656,58.15217208862305 L497.1259765625,60.07246017456055 L497.82342529296875,61.448028564453125 L498.7185974121094,62.15453338623047 L499.7866516113281,62.177734375 L500.9632873535156,61.61057662963867 L502.1651306152344,60.635643005371094 L503.330078125,59.51582717895508 L504.3876647949219,58.508544921875 L505.295654296875,57.811893463134766 L506.0382995605469,57.55754852294922 L506.58465576171875,57.81260681152344 L506.8888244628906,58.585060119628906 L506.8833312988281,59.82252883911133 L506.4938049316406,61.399513244628906 L505.669921875,63.10320281982422 L504.4328308105469,64.6950912475586 L502.8687438964844,65.9114761352539 L501.18402099609375,66.58987426757812 L499.611328125,66.69737243652344 L498.4635314941406,66.48243713378906 L497.83087158203125,66.19864654541016 M508.0149841308594,60.568504333496094 L508.1943359375,60.536346435546875 L508.6215515136719,60.347904205322266 L509.3493957519531,59.907264709472656 L510.3299560546875,59.159854888916016 L511.4357604980469,58.15147399902344 L512.5091552734375,56.9852409362793 L513.4080810546875,55.79380798339844 L514.0072021484375,54.6942253112793 L514.2180786132812,53.81623458862305 L514.0076904296875,53.26483154296875 L513.39111328125,53.135276794433594 L512.475830078125,53.4975700378418 L511.4451904296875,54.36648941040039 L510.48834228515625,55.661861419677734 L509.7806091308594,57.24811935424805 L509.4579162597656,58.9261589050293 L509.5944519042969,60.48576354980469 L510.22161865234375,61.73192596435547 L511.3100891113281,62.52745056152344 L512.8106079101562,62.704917907714844 L514.5784301757812,62.23334884643555 L516.4121704101562,61.20577621459961 L517.8826904296875,60.105770111083984 L518.7865600585938,59.28510665893555 M522.4188232421875,51.47169876098633 L521.9022827148438,51.44443130493164 L521.0223388671875,51.54914855957031 L519.8941040039062,51.87688064575195 L518.8257446289062,52.47464370727539 L518.0736083984375,53.263694763183594 L517.8558959960938,54.13197708129883 L518.2831420898438,54.98638916015625 L519.377197265625,55.7888298034668 L521.0029296875,56.52681350708008 L522.9004516601562,57.207332611083984 L524.7523803710938,57.831546783447266 L526.2357177734375,58.40507125854492 L527.1083984375,58.93965148925781 L527.2415161132812,59.45771408081055 L526.6044921875,59.97958755493164 L525.23779296875,60.49314880371094 L523.768310546875,60.8998908996582 L522.6433715820312,61.15214538574219 " fill="none" stroke="#000000" stroke-linecap="round" stroke-width="1" /></g></svg>